<svg xmlns="http://www.w3.org/2000/svg" width="348" height="547" viewBox="0 0 348 547">
    <defs>
        <clipPath id="pqdq0katva">
            <path data-name="사각형 927" style="fill:none" d="M0 0h284.275v172.2H0z"/>
        </clipPath>
    </defs>
    <g transform="translate(-320 -1044)">
        <rect data-name="사각형 866" width="348" height="547" rx="4" transform="translate(320 1044)" style="fill:#0af"/>
        <text data-name="장애인 채용기업 지원사업 신청" transform="translate(353 1159)" style="font-family:MalgunGothicBold,Malgun Gothic;font-size:37px;fill:#ff0"><tspan x="0" y="0">장애인</tspan><tspan y="0" style="font-family:SegoeUI-Bold,Segoe UI;font-weight:700"> </tspan><tspan y="0">채용기업</tspan><tspan x="0" y="45">지원사업</tspan><tspan y="45" style="font-family:SegoeUI-Bold,Segoe UI;font-weight:700"> </tspan><tspan y="45">신청</tspan></text>
        <text data-name="(최장 3년, 월 최대 300만원 지원)" transform="translate(353 1256)" style="font-size:19px;fill:#fff;font-family:SegoeUI-Bold,Segoe UI;font-weight:700"><tspan x="0" y="0">(</tspan><tspan y="0" style="font-weight:400;font-family:MalgunGothicBold,Malgun Gothic">최장</tspan><tspan y="0" xml:space="preserve"> 3</tspan><tspan y="0" style="font-weight:400;font-family:MalgunGothicBold,Malgun Gothic">년</tspan><tspan y="0">, </tspan><tspan y="0" style="font-weight:400;font-family:MalgunGothicBold,Malgun Gothic">월</tspan><tspan y="0"> </tspan><tspan y="0" style="font-weight:400;font-family:MalgunGothicBold,Malgun Gothic">최대</tspan><tspan y="0" xml:space="preserve"> 300</tspan><tspan y="0" style="font-weight:400;font-family:MalgunGothicBold,Malgun Gothic">만원</tspan><tspan y="0"> </tspan><tspan y="0" style="font-weight:400;font-family:MalgunGothicBold,Malgun Gothic">지원</tspan><tspan y="0">)</tspan></text>
        <text data-name="장애인 채용에 힘을!!!" transform="translate(353 1112)" style="font-size:20px;font-family:MalgunGothic,Malgun Gothic;fill:#fff"><tspan x="0" y="0">장애인</tspan><tspan y="0" style="font-family:SegoeUI,Segoe UI"> </tspan><tspan y="0">채용에</tspan><tspan y="0" style="font-family:SegoeUI,Segoe UI"> </tspan><tspan y="0">힘을</tspan><tspan y="0" style="font-family:SegoeUI,Segoe UI">!!!</tspan></text>
        <rect data-name="사각형 870" width="283" height="66" rx="33" transform="translate(353 1484)" style="fill:#ff0"/>
        <text transform="translate(424 1528)" style="font-family:MalgunGothicBold,Malgun Gothic;font-size:37px;fill:#0af"><tspan x="0" y="0">신청하기</tspan></text>
        <g data-name="그룹 922">
            <g data-name="그룹 921" transform="translate(353 1287)" style="clip-path:url(#pqdq0katva)">
                <path data-name="패스 109" d="M283.2 1589.553H1.071a1.071 1.071 0 0 1 0-2.143H283.2a1.071 1.071 0 1 1 0 2.143" transform="translate(0 -1417.353)" style="fill:#8a9eff"/>
                <path data-name="패스 110" d="M445.008 370.244s-30.041-77.74-8.422-95.051c14.45-11.571 29.766 13.936 48.047.443 16.275-12.013-6.415-42.276 20.74-50.192 28.543-8.321 51.927 59.067 75.876 49.75 29.061-11.306 57.969 11.646 32.987 95.2z" transform="translate(-382.829 -200.655)" style="fill:#d4e8ff"/>
                <path data-name="패스 111" d="M282.312 162.921c-.5-1.545-1-3.146-1.483-4.759l1.182-.352c.477 1.6.972 3.193 1.473 4.728zm211.506-2-1.224-.151c.2-1.645.4-3.3.574-4.924l1.226.134c-.178 1.628-.372 3.29-.576 4.941m-214.351-7.557c-.432-1.594-.85-3.217-1.245-4.825l1.2-.294c.392 1.6.808 3.212 1.237 4.8zm215.433-2.328-1.228-.116c.156-1.652.3-3.313.43-4.938l1.229.1c-.129 1.631-.274 3.3-.431 4.956m-217.8-7.345c-.356-1.624-.7-3.265-1.008-4.88l1.211-.234c.31 1.6.647 3.236 1 4.85zm218.588-2.574-1.231-.078c.1-1.65.2-3.315.272-4.948l1.232.058c-.076 1.64-.168 3.311-.273 4.968M275.2 133.907c-.274-1.644-.528-3.3-.755-4.926l1.222-.17c.225 1.614.477 3.26.75 4.893zm220.941-2.732-1.233-.036c.048-1.658.081-3.324.1-4.954l1.234.013a262.7 262.7 0 0 1-.1 4.976m-222.315-7.14c-.184-1.66-.344-3.33-.476-4.962l1.229-.1c.131 1.621.29 3.278.472 4.926zm221.186-2.8a243.355 243.355 0 0 0-.094-4.952l1.233-.036c.048 1.635.079 3.31.094 4.977zM273.031 114.1c-.082-1.67-.136-3.346-.161-4.983l1.233-.019c.025 1.623.079 3.286.16 4.942zm221.693-2.765a220.111 220.111 0 0 0-.309-4.941l1.23-.091c.121 1.631.226 3.3.311 4.969zm-220.609-7.181-1.233-.025c.034-1.674.1-3.351.2-4.984l1.231.073c-.1 1.617-.161 3.278-.2 4.937m219.872-2.691a188.792 188.792 0 0 0-.554-4.918l1.224-.155c.2 1.617.392 3.283.558 4.95zM274.7 94.291l-1.227-.123c.168-1.668.372-3.335.607-4.955l1.221.177c-.233 1.6-.435 3.251-.6 4.9m218.041-2.647a159.19 159.19 0 0 0-.837-4.874l1.212-.228c.3 1.6.585 3.253.844 4.912zm-145.877-.173a9.739 9.739 0 0 1-4.671-2.4l.78-.956a8.813 8.813 0 0 0 4.026 2.13zm4.279-2.935-1.1-.561a19.486 19.486 0 0 0 1.484-4.56l1.2.263a20.374 20.374 0 0 1-1.59 4.858m-12.57-3a76.94 76.94 0 0 1-3.21-3.85l.969-.763a76.503 76.503 0 0 0 3.159 3.789zm-62.448-1.012-1.211-.235c.32-1.646.681-3.288 1.075-4.879l1.2.3a96.484 96.484 0 0 0-1.061 4.818m214.782-2.595a129.238 129.238 0 0 0-1.171-4.8l1.193-.316c.416 1.571.813 3.2 1.182 4.846zm-137.341-3.219-1.223-.157c.189-1.472.359-3.085.519-4.929l1.229.107c-.161 1.862-.333 3.49-.525 4.98m-21.222-1a576.62 576.62 0 0 1-2.939-4.021l1-.724a522.114 522.114 0 0 0 2.931 4.011zm90.3-.1a5.208 5.208 0 0 1-2.8-.853l.658-1.044a3.966 3.966 0 0 0 4.11.174l.533 1.109a5.8 5.8 0 0 1-2.5.609M278.5 74.952l-1.179-.361c.49-1.6 1.028-3.2 1.6-4.737l1.157.428a85.828 85.828 0 0 0-1.575 4.67m150.677-1.176-.906-.837a41.583 41.583 0 0 0 3.065-3.82l1 .723a42.787 42.787 0 0 1-3.158 3.933m-12.839-.848a38.134 38.134 0 0 1-2.418-4.433l1.115-.528a36.933 36.933 0 0 0 2.339 4.29zm72.036-.546c-.5-1.6-1.027-3.171-1.576-4.676l1.159-.423a103.215 103.215 0 0 1 1.595 4.733zm-161.897-2.712a298.625 298.625 0 0 0-2.96-3.985l.983-.745a309.333 309.333 0 0 1 2.972 4zm27.979-.917-1.231-.08c.093-1.445.189-3.069.291-4.966l1.232.066c-.1 1.9-.2 3.529-.292 4.979m-72.537-3.036-1.128-.5q1.016-2.3 2.165-4.512l1.094.57q-1.132 2.173-2.131 4.44m153.237 0-1.031-.678c.877-1.332 1.782-2.744 2.7-4.171l1.038.667c-.919 1.43-1.825 2.843-2.705 4.182m-23.226-1.824c-.559-1.4-1.136-2.93-1.765-4.674l1.16-.418c.624 1.731 1.2 3.247 1.75 4.636zm73.049-.769a75.734 75.734 0 0 0-2.085-4.46l1.1-.56a76.928 76.928 0 0 1 2.119 4.533zm-164.509-1.344a103.264 103.264 0 0 0-3.185-3.78l.923-.818a104.88 104.88 0 0 1 3.223 3.825zm34.532-2.976-1.232-.062c.083-1.648.166-3.3.254-4.974l1.232.065c-.088 1.677-.171 3.325-.254 4.972m85.562-1.43-1.029-.68a144.727 144.727 0 0 1 2.818-4.124l1 .715c-.857 1.2-1.771 2.541-2.793 4.088M286.5 57.02l-1.04-.664a38.207 38.207 0 0 1 2.97-4.075l.942.8a36.948 36.948 0 0 0-2.872 3.939m122.022-2.509a697.272 697.272 0 0 1-1.589-4.72l1.17-.39c.468 1.4 1.022 3.058 1.586 4.712zm-94.622-.087a42.533 42.533 0 0 0-3.684-3.223l.752-.977a43.777 43.777 0 0 1 3.792 3.316zm166.6-.053a50.478 50.478 0 0 0-2.754-4.054l.984-.744a51.383 51.383 0 0 1 2.822 4.154zm-187.671-4.65-.748-.981a14.609 14.609 0 0 1 4.556-2.408l.361 1.18a13.381 13.381 0 0 0-4.169 2.21m153.506-.377-.958-.777a48.221 48.221 0 0 1 3.351-3.755l.872.872a47.092 47.092 0 0 0-3.265 3.66m-90.8-.485-1.231-.073c.107-1.793.213-3.421.324-4.978l1.23.088a405.337 405.337 0 0 0-.323 4.963m-49.4-.258a14.634 14.634 0 0 0-4.5-1.453l.167-1.222a15.858 15.858 0 0 1 4.882 1.571zm168.439-1.994a29.069 29.069 0 0 0-3.654-3.192l.726-1a30.3 30.3 0 0 1 3.811 3.327zm-69.214-1.537a697.162 697.162 0 0 0-1.591-4.709l1.167-.4c.473 1.381.98 2.88 1.594 4.718zm47.935-2.535-.707-1.011a17.4 17.4 0 0 1 4.554-2.336l.381 1.173a16.174 16.174 0 0 0-4.228 2.174m13.458-1.511a15.571 15.571 0 0 0-4.6-1.185l.115-1.228a16.8 16.8 0 0 1 4.961 1.277zm-110.5-2.081-1.229-.109c.154-1.731.321-3.4.5-4.968l1.226.138a214.238 214.238 0 0 0-.494 4.939m45.872-3.274c-.6-1.664-1.158-3.184-1.717-4.649l1.152-.44c.563 1.473 1.127 3 1.726 4.673zm-44.749-6.583-1.221-.176c.25-1.727.524-3.388.815-4.936l1.212.228c-.288 1.531-.56 3.175-.806 4.885m41.2-2.671a125.715 125.715 0 0 0-1.986-4.533l1.119-.518a128.213 128.213 0 0 1 2.006 4.578zm-39.346-7.04-1.2-.3c.43-1.722.9-3.345 1.41-4.822l1.167.4a58.61 58.61 0 0 0-1.38 4.722m35.17-1.92a65.154 65.154 0 0 0-2.463-4.263l1.042-.66a66.458 66.458 0 0 1 2.51 4.344zm-31.937-7.321-1.106-.546a24.517 24.517 0 0 1 2.67-4.313l.973.763a23.3 23.3 0 0 0-2.532 4.1m26.647-.943a30.144 30.144 0 0 0-3.306-3.557l.827-.915a31.4 31.4 0 0 1 3.443 3.7zm-20.674-6.35-.668-1.047a12.294 12.294 0 0 1 4.784-1.8l.188 1.219a11.069 11.069 0 0 0-4.308 1.627m13.476 0a14.877 14.877 0 0 0-4.449-1.574l.216-1.214a16.107 16.107 0 0 1 4.818 1.7z" transform="translate(-243.638 .003)" style="fill:#dce6ff"/>
                <path data-name="패스 112" d="M400.911 853.8c-10.236-1.517-8.565 12.19-23.156 12.19-13.34 0-17.607-52.2-27.313-37.277-49.758 76.495-20.864-32.531-60.436-33.916-17.893-.626-29.816 18.453-34.213 52.233-6.373 30.539-21.154-23.292-36.365-18.287-9.667 3.181-8.56 37.247-21.9 37.247-14.59 0-12.92-13.707-23.155-12.19-11.02 1.633-14.312 25.894-14.312 25.894h255.162s-3.292-24.261-14.312-25.894" transform="translate(-142.914 -709.64)" style="fill:#eef7ff"/>
                <path data-name="패스 113" d="M476.939 1186.905c-9.417-.648-7.88 5.205-21.3 5.205-12.272 0-11.935-13.117-20.147-15.905-15.124-5.134-27.592 20.849-33.455 7.809-11.136-34.6-43.615-51.955-58.6 0-5.863 13.04-19.575-10.228-33.455-7.809-8.544 1.489-7.875 15.905-20.147 15.905-13.423 0-11.886-5.853-21.3-5.205-10.138.7-13.167 11.057-13.167 11.057h234.738s-3.028-10.36-13.167-11.057" transform="translate(-228.006 -1027.905)" style="fill:#dce6ff"/>
                <path data-name="패스 114" d="M1998.185 679.265c-.049-2.085-1.353-3.593-2.5-5.193-2.425-3.454-6.127-6.1-9.3-8.722-3.573-3.3-6.116-7.795-8.41-12.142a1.4 1.4 0 0 0-2.594.964 39.213 39.213 0 0 0 6.962 15.146c8.056 10.421 15.818 14.838 15.847 9.947" transform="translate(-1763.714 -582.579)" style="fill:#f99370"/>
                <path data-name="패스 115" d="M2027.358 769.758c.166.147.339.291.515.434a31.563 31.563 0 0 0 6.222 3.679c.1-.135.2-.25.291-.349.675-.736 1.065-.665 1.622-2.166 1.084-2.919 2.026-6.376-.42-8.012-5.539-3.706-7.358-7.381-9.8-7.127a4.711 4.711 0 0 1-4.154 3.123c-1.387 3.155 3.174 8.167 5.725 10.418" transform="translate(-1804.828 -675.193)" style="fill:#3a72aa"/>
                <path data-name="패스 116" d="M1957.491 621.752c-1-.665-.011-2.082.536-.792l-.017-.012a.479.479 0 0 1-.519.8" transform="translate(-1747.406 -553.969)" style="fill:#f99370"/>
                <path data-name="패스 117" d="M1963.026 617.381c-1.046-1.222.656-1.906.628-.755 0-.011 0-.017.006.006a.312.312 0 0 0 .046.076s.009.009 0 0c.444.434-.246 1.122-.678.675" transform="translate(-1752.426 -550.041)" style="fill:#f99370"/>
                <path data-name="패스 118" d="m1968.943 614.164-.215-.43a.478.478 0 0 1 .855-.429l.215.43a.478.478 0 0 1-.855.429" transform="translate(-1757.77 -547.37)" style="fill:#f99370"/>
                <path data-name="패스 119" d="M1964.183 620.268s.043-3.273-1.508-4.683l-2.789 1.507a9.777 9.777 0 0 0 1.764 4.425z" transform="translate(-1749.926 -549.638)" style="fill:#f99370"/>
                <path data-name="패스 120" d="M1967.643 595.49c-.008-.67-2.35-4.942-3.052-4.22-.292.278.064.6.233.825a9.581 9.581 0 0 1 1.467 2.848c.215.486.043 1.345.765 1.384a.619.619 0 0 0 .588-.836" transform="translate(-1754.027 -527.854)" style="fill:#f99370"/>
                <path data-name="패스 121" d="M1985.69 606.492c-.437 1.241-.9 2.5-1.432 3.7a.777.777 0 1 0 1.47.493c.311-1.336.533-2.656.74-4a.4.4 0 0 0-.777-.189" transform="translate(-1771.622 -541.282)" style="fill:#f99370"/>
                <path data-name="패스 122" d="M1960.881 630.191c.532-.094.471-.738.243-.321-.28.383-.52.04-.661.142-.041.181.292.2.418.179" transform="translate(-1750.439 -562.268)" style="fill:#e57d61"/>
                <path data-name="패스 123" d="M1962.926 621.8c.207-.007.6-.4.384-.561-.162.04-.055.416-.484.425-.277 0-.436-.281-.531-.505-.063-.082-.007-.393-.147-.4a.073.073 0 0 0-.064.079c.034.441.318 1.05.843.965" transform="translate(-1751.888 -554.252)" style="fill:#e57d61"/>
                <path data-name="패스 124" d="M1969 616.063a.554.554 0 0 0 .395-.789l-.215-.43a.072.072 0 0 0-.129.065l.216.43a.406.406 0 0 1-.726.364 2.007 2.007 0 0 1-.249-.712.072.072 0 0 0-.144.012c.14.653.287 1.1.853 1.06" transform="translate(-1757.3 -548.941)" style="fill:#e57d61"/>
                <path data-name="패스 125" d="M1980.53 626.724a6.582 6.582 0 0 1 1.261-2.555c-.046-.455-1.192 1.218-1.346 2.476a.073.073 0 0 0 .085.079" transform="translate(-1768.282 -557.234)" style="fill:#e57d61"/>
                <path data-name="패스 126" d="M2137.673 1070.4a1.7 1.7 0 0 0 1.17-1.815s-12.3-36.949-4.972-53.389c2.183-4.895 9.374-4.859 17.556-.927 2.427 8.881 1.354 17 5.043 23.076 2.706 4.452 8.181 8.008 18.427 8.9l-1.476 9.087a.665.665 0 0 1-1.1.391c-1.143-1.288-.522-3.15-.889-4.93a1.709 1.709 0 0 0-1.615-1.435c-22.987-1.153-25.21-10.753-27.2-20.019 0 0-2.191 21.557-.109 40.24a17.758 17.758 0 0 1 .184 3.534l-9.2-.062a.671.671 0 0 1-.562-1.034c1.1-1.313 3.028-.991 4.729-1.624" transform="translate(-1903.191 -903.062)" style="fill:#f99370"/>
                <path data-name="패스 127" d="M2082.045 883.522a31.564 31.564 0 0 0 6.222 3.679c.1-.135.2-.25.291-.349l.218-3.721s-1.532 2.15-2.435 2.3c-.885.145-4.169-1.83-4.3-1.907" transform="translate(-1858.998 -788.522)" style="fill:#23659b"/>
                <path data-name="패스 128" d="M2127.263 677.223s-1.827-1.671-3.969.688-1.1 2.882-4.01 5.36.023 6.992 2.377 7.778-.448 3.52 4.272 4.385 16.883-11.141 1.33-18.211" transform="translate(-1891.164 -604.16)" style="fill:#c92828"/>
                <path data-name="패스 129" d="m2166.682 807.644.174 1.252c-.662.658-1.062 9.275-.963 9.716.192.853 1.753 2 2.574-.324.267-.757 2.1-9.476 2.267-9.768 0 0-.027-1.707-.075-2.264z" transform="translate(-1933.85 -719.883)" style="fill:#f99370"/>
                <path data-name="패스 130" d="M2500.092 1331.492a2.332 2.332 0 0 1 .829.417l-1.488 9.162a.66.66 0 0 1-.96.481c-.926-.507-2.156-1.946-1.691-6.206a9.042 9.042 0 0 0 .617-3.8 5.741 5.741 0 0 1 2.692-.056" transform="translate(-2229.215 -1188.722)" style="fill:#eb5648"/>
                <path data-name="패스 131" d="m2513.281 1342.745 1.632-10.053a2.333 2.333 0 0 1 .829.418l-1.488 9.162a.66.66 0 0 1-.974.473" transform="translate(-2244.037 -1189.922)" style="fill:#ce3932"/>
                <path data-name="패스 132" d="M2153.116 1556.855a2.334 2.334 0 0 1-.285.883l-9.285-.062a.659.659 0 0 1-.623-.874c.359-.993 1.593-2.429 5.874-2.624a9.048 9.048 0 0 0 3.85.026 5.737 5.737 0 0 1 .469 2.651" transform="translate(-1913.32 -1387.681)" style="fill:#eb5648"/>
                <path data-name="패스 133" d="m2142.928 1578.527 10.188.068a2.327 2.327 0 0 1-.285.883l-9.285-.062a.659.659 0 0 1-.617-.889" transform="translate(-1913.32 -1409.421)" style="fill:#ce3932"/>
                <path data-name="패스 134" d="M2175.188 758.441c0 .067-.005.135-.013.2-.1-.048.454 2.576.66 4.315-1.458 1.021-3.918.629-4.259.6a22.641 22.641 0 0 1-.162-5.527 1.913 1.913 0 0 1 3.775.41" transform="translate(-1938.7 -675.504)" style="fill:#e57d61"/>
                <path data-name="패스 135" d="M2127.143 852.184s7.354 5.368 18.706-2.223a12.929 12.929 0 0 1-2.4-6.659 19.631 19.631 0 0 1-.124-2.236c0-.544-.01-1.051-.026-1.521-.074-2.149-.284-3.528-.316-4.2.517-4.337-5.8-6.973-8.482-7.949-1.077 1.714-2.05 9.439-3.575 9.658-1.688-.356-.292-8.831-.334-9.3-1.025 1.893-2.714 4.872-3.691 6.415a8.894 8.894 0 0 0-1.6 4.518c-.085 3.723 4 6.848 1.849 13.5" transform="translate(-1897.613 -738.753)" style="fill:#3a72aa"/>
                <path data-name="패스 136" d="M2141.358 712.627c1.3 1.42 3.1 1.8 5.319 1.524 3.684-.45 4.854-6.357 3.478-9.315a4.176 4.176 0 0 0-5.337-2.381c-1.426.7-2.006 2.1-2.684 3.584a4.96 4.96 0 0 1-.946 1.217c-1.406 1.322-1.482 3.469.17 5.37" transform="translate(-1910.857 -626.931)" style="fill:#f99370"/>
                <path data-name="패스 137" d="M2180.847 705.926c2.86 1.04 2.452 3.368 2.452 3.368l1.19-1.181-2.282-4.492-2.381-1.273a3.125 3.125 0 0 0-1.655.664s-.183 1.874 2.677 2.914" transform="translate(-1944.824 -627.106)" style="fill:#e57d61"/>
                <path data-name="패스 138" d="M2178.539 749.624a.254.254 0 0 1 .46-.214.254.254 0 0 1-.46.214" transform="translate(-1945.131 -668.997)" style="fill:#c16256"/>
                <path data-name="패스 139" d="M2158.753 745.59a.254.254 0 0 1 .46-.214.254.254 0 0 1-.46.214" transform="translate(-1927.465 -665.396)" style="fill:#c16256"/>
                <path data-name="패스 140" d="M2159.084 752.375c.121-.008.371.024.349-.149a.1.1 0 0 0-.119-.066c-.327.1-1.1-.148-.719-.365.554-.276.955-1.293.972-1.336a.1.1 0 0 0-.179-.07c0 .01-.391.991-.879 1.234-.6.393.11.73.574.752" transform="translate(-1927.066 -669.948)" style="fill:#c16256"/>
                <path data-name="패스 141" d="M2120.517 1018.77c.3 1.289.532 1.963.532 1.963a26.5 26.5 0 0 0 25.6-4.973 6.316 6.316 0 0 1-.908-1.728c-1.412-3.805-1.687-10.961-2.046-15.12-.44-5.117-3.718-9.557-4.97-11.085-.3-.366-.484-.566-.484-.566a36.544 36.544 0 0 1-16.1 1.628s-.093.244-.244.692a50.042 50.042 0 0 0-2.453 11.956 59.387 59.387 0 0 0 1.078 17.233" transform="translate(-1892.23 -881.497)" style="fill:#1d3f70"/>
                <path data-name="패스 142" d="M2154.991 822.5a2.636 2.636 0 0 0-2.213-.843s-1.094 9.87 2.547 11.626c0 0 4.137-.8 5.294-11.769 0 0-1.4-.059-1.719.629a58.756 58.756 0 0 0-3.575 9.274 55.048 55.048 0 0 1-.334-8.917" transform="translate(-1922.016 -733.501)" style="fill:#23659b"/>
                <path data-name="패스 143" d="M2263.065 935.771a36.6 36.6 0 0 1 3.392 4.3 19.576 19.576 0 0 1-.124-2.236c0-.544-.01-1.051-.026-1.521z" transform="translate(-2020.626 -835.523)" style="fill:#23659b"/>
                <path data-name="패스 144" d="M2162.288 772.743a1.922 1.922 0 0 0 1.65-.323.12.12 0 0 0-.161-.178 1.736 1.736 0 0 1-1.58.234.12.12 0 1 0-.06.232c.051.013.1.025.151.035" transform="translate(-1930.43 -689.485)" style="fill:#c16256"/>
                <path data-name="패스 145" d="M2157.846 737.259a.127.127 0 0 0 .03 0l.71-.037a.12.12 0 1 0-.012-.24l-.71.036a.12.12 0 0 0-.018.238" transform="translate(-1926.593 -658.032)" style="fill:#c16256"/>
                <path data-name="패스 146" d="M2180.235 737.654a.12.12 0 0 0 .127-.179 1.95 1.95 0 0 0-1.3-.84.12.12 0 0 0-.139.1.118.118 0 0 0 .1.139 1.739 1.739 0 0 1 1.134.725.121.121 0 0 0 .08.057" transform="translate(-1945.497 -657.719)" style="fill:#c16256"/>
                <path data-name="패스 147" d="M2228.454 832.58c3.869 3.069 8.938 6.6 10.088 11.6 2.063 8.97-5.691 14.411-11.788 17.33-.186.1-1.182.629-1.384.717-.8.35-.876.048-1.355-.94a1.326 1.326 0 0 1 .582-1.744c.441-.349 1.057-.722 1.407-1.066 9.149-7.957 6.648-12.724-1.51-18.689-3.951-2.889-.087-9.961 3.959-7.213" transform="translate(-1984.713 -742.83)" style="fill:#f99370"/>
                <path data-name="패스 148" d="M2242.968 1086.076a3.089 3.089 0 0 0-1.827-2.195 1.018 1.018 0 0 1 .681-.487 3.168 3.168 0 0 1 1.872 2.336.974.974 0 0 1-.726.346" transform="translate(-2001.051 -967.331)" style="fill:#eb5648"/>
                <path data-name="패스 149" d="M2211.2 829.373s4.437 3.08 8.315 6.267-.636 7.428.48 8.417a5.331 5.331 0 0 1 3.69 3.1s3.88.328 5.229-6.555c2.556-13.049-10.48-20-15.994-19.388 0 0-.473 5.426-1.72 8.161" transform="translate(-1974.321 -733.203)" style="fill:#3a72aa"/>
                <path data-name="패스 150" d="M2183.836 674.562c.533-2.619 6.83-6.83 10.689.256 2.719 5.58 10.525 11.921 3.275 14.682-2.718.376-.157 3.022-1.964 4.259s-3.685-.078-3.91 3.031-2.541 3.721-4.694 3.5c-2.776-.288-3.506-6.313-1.147-8.078 2.553-1.911-.871-3.6.412-6.21s2.658-3.041 2.658-3.041l-.406-2.493c.053-3.117-5.194-3.032-4.913-5.9" transform="translate(-1949.875 -599.037)" style="fill:#c92828"/>
                <path data-name="패스 151" d="M2227.883 758.065c-.478 1.89-2.786 1.318-2.326-.576.478-1.89 2.786-1.318 2.326.576" transform="translate(-1987.082 -675.301)" style="fill:#f99370"/>
                <path data-name="패스 152" d="M2234.147 762.917a.1.1 0 0 0 .094-.065c.476-1.2-.165-1.727-.974-1.428a.1.1 0 0 0 .064.181c.694-.258 1.126.184.729 1.184a.1.1 0 0 0 .088.127" transform="translate(-1993.964 -679.781)" style="fill:#c16256"/>
                <path data-name="패스 153" d="M2233.055 766.511c.175-.017.3-.716 1.038-.766a.1.1 0 0 0 .093-.1.1.1 0 0 0-.1-.093c-.739.035-1.321.906-1.032.958" transform="translate(-1993.764 -683.54)" style="fill:#c16256"/>
                <path data-name="패스 154" d="M2231.011 777.546a.465.465 0 0 1-.9-.215.465.465 0 0 1 .9.215" transform="translate(-1991.184 -693.746)" style="fill:#fdffde"/>
                <path data-name="패스 155" d="M2173.56 1088.76c.012.519 1.349.166 1.777.373a7.848 7.848 0 0 1-1.426 1.1 33.243 33.243 0 0 1-3.156.925c-1.256 1.145 2.893.1 3.276.062l.007.015a24.791 24.791 0 0 1-3.053 1.6c-1.017 1.464 3.219-.686 3.595-.841l.006.006a14.4 14.4 0 0 1-2.715 1.846c-.894 1.566 3.239-.954 3.546-1.231l.011.006a14.682 14.682 0 0 1-1.9 1.792c-.579 1.553 2.56-1.055 2.843-1.34a6.108 6.108 0 0 0 2.487-2.225c.37-.525-.3-2.13-.882-2.364a4.732 4.732 0 0 0-2.021-.1c-.524-.022-2.265-.233-2.4.378" transform="translate(-1937.994 -971.725)" style="fill:#f99370"/>
                <path data-name="패스 156" d="M2143.8 989.581c8.011 1.693 16.719-1.71 16.833-1.755-.3-.366-.484-.566-.484-.566a36.544 36.544 0 0 1-16.1 1.628s-.093.244-.244.692" transform="translate(-1914.142 -881.497)" style="fill:#10325b"/>
                <path data-name="패스 157" d="M2130.965 1241.889c.3 1.289.532 1.963.532 1.963a26.5 26.5 0 0 0 25.6-4.973 6.33 6.33 0 0 1-.908-1.728 29.293 29.293 0 0 1-25.165 4.754l-.061-.016" transform="translate(-1902.678 -1104.617)" style="fill:#10325b"/>
                <path data-name="패스 158" d="m1820 1462.853 7.76-4.953c-.13-.5-1.71-2.129-2.076-2.867-.3-.411-3.229-6.356-3.551-6.961l-4.455 2.844 4.379 5.274a1.7 1.7 0 0 1 .005 2.16c-1.083 1.459-2.886 2.237-3.084 3.947a.665.665 0 0 0 1.022.556" transform="translate(-1622.949 -1292.942)" style="fill:#f99370"/>
                <path data-name="패스 159" d="M1837.475 1515.02a2.327 2.327 0 0 1 .241.9l-7.824 4.994a.66.66 0 0 1-1-.4c-.239-1.029.016-2.9 3.5-5.4a9.043 9.043 0 0 0 3.244-2.071 5.737 5.737 0 0 1 1.835 1.971" transform="translate(-1632.909 -1350.958)" style="fill:#1d3f70"/>
                <path data-name="패스 160" d="m1829.406 1536.924 8.585-5.48a2.333 2.333 0 0 1 .241.9l-7.824 4.994a.66.66 0 0 1-1-.411" transform="translate(-1633.424 -1367.382)" style="fill:#395b96"/>
                <path data-name="패스 161" d="M1570.975 1492.981h9.206c.157-.488-.3-2.715-.209-3.534-.033-.509.7-7.1.75-7.778h-5.286l.855 6.8a1.7 1.7 0 0 1-1.157 1.824c-1.7.648-3.636.334-4.723 1.669a.665.665 0 0 0 .563 1.019" transform="translate(-1402.084 -1322.937)" style="fill:#f99370"/>
                <path data-name="패스 162" d="M1579.829 1556.921a2.331 2.331 0 0 1-.279.885h-9.282a.66.66 0 0 1-.628-.87c.352-1 1.575-2.44 5.854-2.666a9.039 9.039 0 0 0 3.849 0 5.737 5.737 0 0 1 .488 2.649" transform="translate(-1401.453 -1387.765)" style="fill:#1d3f70"/>
                <path data-name="패스 163" d="M1569.644 1579h10.184a2.33 2.33 0 0 1-.279.885h-9.282a.66.66 0 0 1-.623-.885" transform="translate(-1401.452 -1409.838)" style="fill:#395b96"/>
                <path data-name="패스 164" d="M1557.566 1069.833c.112 1.157.195 1.788.195 1.788 4.044 2.063 10.108 1.694 14.114.727q-.076-.516-.146-1.027l-.116-.867c-2.871-22 .953-37.345.953-37.345 1.474 10.6 1.845 17.923 9.5 36.483q.389.942.8 1.923a34.248 34.248 0 0 0 13.772-6.077q-.54-.919-1.035-1.837c-9.88-18.261-7.387-35.856-12.473-45.478 0 0-20.122-1.272-20.379-.55-7.517 21.138-5.843 45.547-5.189 52.26" transform="translate(-1390.146 -908.363)" style="fill:#1d3f70"/>
                <path data-name="패스 165" d="M1633.314 680.026s4.656-2.584 7.561 3.027c1.376 2.656 1.9 5.586 3.8 6.543 1.344.674 2.073 2.579.43 4.808-1.969 2.672.6 2.661.529 4.927s-.911 4.811-3.711 3.777-3.074 1.344-5.76 1.89-5.245-3.447-8.43-2.939-5.482-2.131-5.337-3.782 2.974-2.841 3.195-4.49-.872-3.833 1.169-5.83 6.552-7.932 6.552-7.932" transform="translate(-1448.587 -606.645)" style="fill:#8e4a35"/>
                <path data-name="패스 166" d="M1558.353 637.89c.587-2-.2-3.834-.8-5.708-1.26-4.028-3.982-7.675-6.211-11.138-2.4-4.225-3.457-9.285-4.321-14.124a1.4 1.4 0 0 0-2.765.129 39.214 39.214 0 0 0 2.028 16.546c4.506 12.376 10.558 18.945 12.073 14.294" transform="translate(-1378.696 -540.899)" style="fill:#f99370"/>
                <path data-name="패스 167" d="M1537.993 643.847a29.266 29.266 0 0 0 2.595 6.355 38.467 38.467 0 0 0 4.9 7.032 17.943 17.943 0 0 0 3.66-3.495c1.92-2.451 3.1-5.444 1.271-7.746-4.149-5.214-8-14.545-9.455-20.765a3.983 3.983 0 0 1-3.005.12c-.513 3.9-1.579 12.656.034 18.5" transform="translate(-1372.465 -558.251)" style="fill:#f4d4be"/>
                <path data-name="패스 168" d="M1711.014 839.186a10.614 10.614 0 0 1 5.759 2.068c3.557 2.272 5.933 5.711 8.69 8.77 3.448 3.425 8.806 6.516 13.249 8.618 1.462.638 1.111 2.909-.438 2.569-5.539-1.076-11.934-3.315-16.63-6.628-10.763-7.592-15.516-15.153-10.63-15.4" transform="translate(-1526 -749.283)" style="fill:#f99370"/>
                <path data-name="패스 169" d="M1569.375 858.351a38.465 38.465 0 0 0 4.9 7.032 17.935 17.935 0 0 0 3.659-3.495l-1.57-2.286a18.384 18.384 0 0 1-2.583 2.509c-.76.547-2.11-.244-4.4-3.76" transform="translate(-1401.25 -766.397)" style="fill:#eabfac"/>
                <path data-name="패스 170" d="M1720.255 828.78c.5.733 6.9 16.928 7.7 16.79 4.048 4.535 12.588 5.776 17.4 5.654a5.4 5.4 0 0 0 1.258-2.906c-4.7-2.813-9.9-6.135-13.651-11.956-5.189-8.232-12.7-7.581-12.7-7.581" transform="translate(-1535.967 -739.983)" style="fill:#f4d4be"/>
                <path data-name="패스 171" d="m1786.835 918.911.5 7.068.072.077a13.769 13.769 0 0 0 3.7 2.787c.538.286 1.09.543 1.651.776h.005c.171.071.344.139.518.2a13.11 13.11 0 0 1-2.926-2.867c-1.215-1.746-.839-4.7-3.518-8.049" transform="translate(-1595.414 -820.469)" style="fill:#eabfac"/>
                <path data-name="패스 172" d="M1935.876 1007.288a5.241 5.241 0 0 0 2 .031 5.4 5.4 0 0 0 1.257-2.906 5.166 5.166 0 0 0-1.363-.819s.361.546-.071.875-.9.189-.858.835.337.9-.121 1.219-.7.313-.843.767" transform="translate(-1728.488 -896.078)" style="fill:#eabfac"/>
                <path data-name="패스 173" d="M1676.763 683.782a3.365 3.365 0 0 0-4.245-.941c-2.628 1.29-3.005 6.889-3.005 6.889z" transform="translate(-1490.66 -609.331)" style="fill:#8e4a35"/>
                <path data-name="패스 174" d="m1681.215 812.577-.047 1.263c-.8.674-.013 1.941.636 1.994.988.082 2.888-1.245 3.248-1.688 0 0-.041-1.212.009-1.768z" transform="translate(-1500.764 -725.349)" style="fill:#f99370"/>
                <path data-name="패스 175" d="M1688.814 757.247a2.519 2.519 0 0 1-.048.2 21.422 21.422 0 0 0-.571 4.078 6.691 6.691 0 0 1-3.83.134 22.633 22.633 0 0 1 .8-5.47 1.913 1.913 0 0 1 3.646 1.061" transform="translate(-1503.921 -674.132)" style="fill:#e57d61"/>
                <path data-name="패스 176" d="M1665.138 705.385a7.792 7.792 0 0 1-3.5 3.934 4.281 4.281 0 0 1-2.094.288c-4.124-.053-7.3-5.944-3.321-8.235 1.392-.675 2.161-2.384 3.331-3.121 1.815-1.446 4.552-.513 5.593 1.431a6.4 6.4 0 0 1-.007 5.7" transform="translate(-1477.162 -622.818)" style="fill:#f99370"/>
                <path data-name="패스 177" d="m1675.614 762.4 2.485-.447a1.289 1.289 0 0 1-2.485.447" transform="translate(-1496.108 -680.322)" style="fill:#f9f8f3"/>
                <path data-name="패스 178" d="M1699.037 741.07a.26.26 0 0 1 .511-.091.26.26 0 0 1-.511.091" transform="translate(-1517.017 -661.414)" style="fill:#c16256"/>
                <path data-name="패스 179" d="M1680.537 731.885a.26.26 0 0 1 .511-.091.26.26 0 0 1-.511.091" transform="translate(-1500.499 -653.212)" style="fill:#c16256"/>
                <path data-name="패스 180" d="M1674.767 761.922c.049.039 2.487-.446 2.541-.44a.1.1 0 0 0 .079-.114c.08-.23-2.555.408-2.6.367a.1.1 0 0 0-.022.187" transform="translate(-1495.301 -679.759)" style="fill:#c16256"/>
                <path data-name="패스 181" d="M1675.993 740.852c.153.047.472.207.526 0a.1.1 0 0 0-.1-.1c-.346.005-.744-.288-.762-.449-.006-.057.076-.086.147-.1.607-.1 1.739-1.38 1.153-1.181-.006.009-.646.877-1.192.988-.639.2-.174.654.229.841" transform="translate(-1495.961 -659.833)" style="fill:#c16256"/>
                <path data-name="패스 182" d="M1601.679 846.513c8.642 4.359 20.379.55 20.379.55s.815-4.115.393-6.07c-.864-3.994-4.229-14.172-9.092-14.892 0 0-2.108 2.638-4.133 1.3-.785-.517.471-1.716.221-1.634-1.223.4-4.121 3.2-5.049 4.444-6.847 9.176-2.458 10.138-2.719 16.3" transform="translate(-1429.069 -737.304)" style="fill:#f4d4be"/>
                <path data-name="패스 183" d="M1711.905 705.425a7.791 7.791 0 0 1-3.5 3.933 9.531 9.531 0 0 0 2.041-2.533l-.071-.99c-5.14-3.565-3.266-7.992-3.266-7.992 4.426-1.5 6.686 4.052 4.8 7.582" transform="translate(-1523.93 -622.858)" style="fill:#e57d61"/>
                <path data-name="패스 184" d="M1713.665 695.246s-1.825 4.372 2.712 7.769l2.136-.455c2.846-2.961 1.171-9.079-4.848-7.314" transform="translate(-1529.759 -620.485)" style="fill:#8e4a35"/>
                <path data-name="패스 185" d="M1742.124 764.465c-.933 1.743-3.12.541-2.148-1.181.933-1.743 3.12-.541 2.148 1.181" transform="translate(-1553.357 -680.753)" style="fill:#f99370"/>
                <path data-name="패스 186" d="M1750.694 769a1.2 1.2 0 0 0 .444-1.35c-.282-.407-.994-.449-1-.246.062.222.559-.061.832.346.289.387-.449 1.027-.274 1.251" transform="translate(-1562.646 -685.084)" style="fill:#c16256"/>
                <path data-name="패스 187" d="M1747 773.64c.2.048.477-.629 1.238-.48a.1.1 0 0 0 .118-.073c-.4-.547-1.719.486-1.356.554" transform="translate(-1559.792 -690.124)" style="fill:#c16256"/>
                <path data-name="패스 188" d="M1746.422 784.191a.221.221 0 0 1-.422-.128.221.221 0 0 1 .422.128" transform="translate(-1558.943 -699.932)" style="fill:#f4d4be"/>
                <path data-name="패스 189" d="M1679.618 868.942a.541.541 0 1 0 .421-.639.541.541 0 0 0-.421.639" transform="translate(-1499.673 -775.273)" style="fill:#eabfac"/>
                <path data-name="패스 190" d="M1677.167 887.724a.541.541 0 1 0 .421-.639.541.541 0 0 0-.421.639" transform="translate(-1497.484 -792.043)" style="fill:#eabfac"/>
                <path data-name="패스 191" d="M1628.923 1011.456s-11.676 3.325-20.57-.286a1.882 1.882 0 0 0-.285 1.683s6.448 4.764 21.172.807a3.422 3.422 0 0 0-.317-2.2" transform="translate(-1435.737 -902.844)" style="fill:#244c7c"/>
                <path data-name="패스 192" d="M1671.164 1019.767a2.3 2.3 0 1 0 2.3-2.3 2.3 2.3 0 0 0-2.3 2.3" transform="translate(-1492.134 -908.467)" style="fill:#10325b"/>
                <path data-name="패스 193" d="M1704.319 729.855a.12.12 0 0 0 .147-.132 2.271 2.271 0 0 0-.628-1.252.12.12 0 0 0-.162.177 2.06 2.06 0 0 1 .553 1.107.12.12 0 0 0 .091.1" transform="translate(-1521.129 -650.402)" style="fill:#c16256"/>
                <path data-name="패스 194" d="M1681.186 725.543a.118.118 0 0 0 .031 0l1.019-.026a.12.12 0 1 0-.006-.24l-1.019.026a.12.12 0 0 0-.025.237" transform="translate(-1501.001 -647.581)" style="fill:#c16256"/>
                <path data-name="패스 195" d="M1540.338 568.556c-.749-.937.623-1.987.751-.592l-.013-.016a.478.478 0 0 1-.739.608" transform="translate(-1375.125 -506.515)" style="fill:#f99370"/>
                <path data-name="패스 196" d="M1546.926 566.283c-.625-1.482 1.2-1.616.828-.528.008-.01 0-.017 0 .008a.3.3 0 0 0 .021.087s.005.012 0 0a.478.478 0 0 1-.851.437" transform="translate(-1381.089 -504.507)" style="fill:#f99370"/>
                <path data-name="패스 197" d="m1553.983 564.945-.074-.475a.478.478 0 0 1 .945-.148l.074.475a.478.478 0 0 1-.945.148" transform="translate(-1387.433 -503.515)" style="fill:#f99370"/>
                <path data-name="패스 198" d="M1543.86 575.277s1.037-3.105-.013-4.919l-3.115.588a9.777 9.777 0 0 0 .335 4.752z" transform="translate(-1375.539 -509.256)" style="fill:#f99370"/>
                <path data-name="패스 199" d="M1558.849 546.312c.2-.64-.737-5.423-1.625-4.949-.363.177-.12.587-.029.857a9.577 9.577 0 0 1 .531 3.159c.057.528-.368 1.295.308 1.551a.619.619 0 0 0 .815-.618" transform="translate(-1390.229 -483.338)" style="fill:#f99370"/>
                <path data-name="패스 200" d="M1562.454 566.193c-.793 1.049-1.621 2.109-2.489 3.09a.777.777 0 1 0 1.25.916c.7-1.179 1.315-2.368 1.922-3.59a.4.4 0 0 0-.683-.416" transform="translate(-1392.665 -505.393)" style="fill:#f99370"/>
                <path data-name="패스 201" d="M1541.962 578.656c.535.073.673-.56.329-.232-.383.279-.508-.12-.673-.066-.094.16.217.279.343.3" transform="translate(-1376.452 -516.373)" style="fill:#e57d61"/>
                <path data-name="패스 202" d="M1546.779 569.437c.2.056.69-.2.536-.418-.167-.011-.178.379-.59.258-.264-.084-.329-.4-.352-.642-.035-.1.113-.377-.018-.429a.073.073 0 0 0-.085.056c-.1.431-.017 1.1.509 1.175" transform="translate(-1380.587 -507.333)" style="fill:#e57d61"/>
                <path data-name="패스 203" d="M1554.08 566.775a.553.553 0 0 0 .616-.632l-.074-.475a.072.072 0 0 0-.143.022l.074.475a.406.406 0 0 1-.8.126 2 2 0 0 1-.021-.754.072.072 0 0 0-.141-.032c-.065.665-.061 1.137.49 1.269" transform="translate(-1387.13 -504.873)" style="fill:#e57d61"/>
                <path data-name="패스 204" d="M1556.047 582.571a6.579 6.579 0 0 1 1.978-2.05c.095-.447-1.506.8-2.035 1.95a.073.073 0 0 0 .057.1" transform="translate(-1389.293 -518.246)" style="fill:#e57d61"/>
                <path data-name="패스 205" d="M1668.76 820.226a1.555 1.555 0 0 1-1.041 1.706c-1.24.4-.875 1.787-2.316 1.732s-1.5-1.443-2.921-.8c-1.536.7-2.185-.7-1.729-1.408s-1.041-1.356-.529-2.4a4.346 4.346 0 0 1 2.424.723s.1 1.243.951 1.444a6.007 6.007 0 0 0 2.959-1.115 2.942 2.942 0 0 1 2.2.112" transform="translate(-1482.27 -731.317)" style="fill:#eabfac"/>
                <path data-name="패스 206" d="M1542.527 627.308c.436-.151.6-.524.816-.6.295-.109.39.493.936.534s.685-.314 1.026-.643.921.477.957.517a17.133 17.133 0 0 1-.485-1.878 3.957 3.957 0 0 1-3 .118c-.007.044-.105.772-.245 1.954" transform="translate(-1377.278 -558.253)" style="fill:#eabfac"/>
                <path data-name="패스 207" d="M1984.279 1013.32a.29.29 0 0 1-.229.34h-.02c-.128.025-.255.046-.382.074s-.252.056-.374.1a5.746 5.746 0 0 0-.653.229 7.845 7.845 0 0 0 1.627.772c.167.021.337.04.5.057q.459.048.922.084.924.07 1.854.091a.291.291 0 0 1 .023.58q-.941.1-1.889.141c-.316.015-.632.025-.949.032h-.373v.016q.5.172 1.008.327.57.174 1.147.32c.385.1.772.183 1.161.261h.007a.29.29 0 0 1-.088.573c-.407-.042-.814-.088-1.218-.153a28.735 28.735 0 0 1-2.386-.477v.007a13.798 13.798 0 0 0 1.233.595c.293.123.59.24.892.344s.606.2.914.286h.006a.29.29 0 0 1-.125.566c-.329-.052-.659-.109-.985-.184s-.651-.156-.973-.248a15.77 15.77 0 0 1-1.433-.495l-.211-.088-.01.009c.069.051.137.1.207.153.21.149.427.291.648.429s.448.269.677.4.463.249.7.367a.291.291 0 0 1-.223.535 18.403 18.403 0 0 1-1.533-.581 14.52 14.52 0 0 1-.751-.353 8.924 8.924 0 0 1-.371-.2l-.186-.107-.068-.042a5.585 5.585 0 0 1-2.835-1.6c-.473-.434-.163-2.144.359-2.5a4.73 4.73 0 0 1 1.954-.524q.216-.077.434-.139a6.729 6.729 0 0 1 .844-.17c.14-.024.283-.03.424-.045s.283-.013.423-.02a.29.29 0 0 1 .3.234" transform="translate(-1767.268 -904.555)" style="fill:#f99370"/>
                <path data-name="패스 208" d="M1805.045 1449.071s-6.785 5.205-13.54 5.992q.389.942.8 1.923a34.248 34.248 0 0 0 13.772-6.077q-.54-.919-1.035-1.837" transform="translate(-1599.584 -1293.834)" style="fill:#10325b"/>
                <path data-name="패스 209" d="M1562.8 1507.251c.112 1.157.195 1.788.195 1.788 4.044 2.063 10.108 1.694 14.114.727q-.14-.954-.261-1.894a24.352 24.352 0 0 1-14.047-.621" transform="translate(-1395.375 -1345.781)" style="fill:#10325b"/>
                <path data-name="패스 210" d="m1670.072 1202.82 1.724-.157q-.06-.436-.116-.867c-2.871-22 .953-37.345.953-37.345a10.053 10.053 0 0 0-2.342 5.1c-.821 3.885-2.3 20.856-.219 33.267" transform="translate(-1490.212 -1039.705)" style="fill:#10325b"/>
                <path data-name="패스 211" d="m1060.621 542.111.083-1.435-3.123-.094s-.115 1.075-.227 1.533a2.773 2.773 0 0 0 3.266 0" transform="translate(-944.082 -482.669)" style="fill:#f99370"/>
                <path data-name="패스 212" d="M1353.37 541.377s-.1-.679-.148-1.162l-3.167-.3.048 1.455a3.43 3.43 0 0 0 3.266 0" transform="translate(-1205.426 -482.078)" style="fill:#f99370"/>
                <path data-name="패스 213" d="M1264.936 1486.428h-9.152c-.8-.032-.793-.846-.646-1.477.5-2.275-.387-7.5-.552-9.838a.727.727 0 0 1 .724-.8h4.039a.727.727 0 0 1 .722.817l-.735 5.85c-.282 2.709 2.524 2.934 4.367 3.307a3.041 3.041 0 0 1 1.834 1 .728.728 0 0 1-.6 1.138" transform="translate(-1120.18 -1316.371)" style="fill:#f99370"/>
                <path data-name="패스 214" d="M1256.208 1554.911c.025.448.247.959.767.948h9.494a.7.7 0 0 0 .664-.948c-.368-1.035-1.677-2.578-6.164-2.831a16.061 16.061 0 0 1-4.239-.006 4.6 4.6 0 0 0-.522 2.837" transform="translate(-1121.599 -1385.802)" style="fill:#1d3f70"/>
                <path data-name="패스 215" d="M1267.442 1578.555h-10.925a2.494 2.494 0 0 0 .3.948h9.961a.7.7 0 0 0 .67-.932l-.006-.016" transform="translate(-1121.908 -1409.446)" style="fill:#395b96"/>
                <path data-name="패스 216" d="m1113.173 1485.483-5.561.074a2.352 2.352 0 0 1 .361-1.468c1.117-1.483-.217-8.115-.178-9.848-.259-.474 4.829-.1 4.91-.214a.2.2 0 0 1 .2.212l-.6 7.578c-.27 1.439.835 2.309.874 3.665" transform="translate(-988.955 -1316.086)" style="fill:#f99370"/>
                <path data-name="패스 217" d="M1106.894 1555.859h4.058a.9.9 0 0 0 .9-.932v-.016a2.7 2.7 0 0 0-2.928-2.837 2.666 2.666 0 0 0-2.929 2.837v.02a.9.9 0 0 0 .9.929" transform="translate(-987.509 -1385.802)" style="fill:#1d3f70"/>
                <path data-name="패스 218" d="M1106.894 1579.5h4.058a.9.9 0 0 0 .9-.932v-.016h-5.857v.02a.9.9 0 0 0 .9.929" transform="translate(-987.509 -1409.446)" style="fill:#395b96"/>
                <path data-name="패스 219" d="M1095.9 1066.577s4.575 1.05 6.931-.078c0 0 .1-.562.267-1.569 1-5.912 4.512-31.971 5.55-44.625 0 0 2.417 37.056 2.921 44.625.062.934.1 1.492.091 1.569a13.024 13.024 0 0 0 1.4.358c1.485.3 3.82.539 5.331-.469 0 0 .058-.513.153-1.458.683-6.782 4.432-32.656.531-53.827 0 0-13.828 1.27-22.342-1.161 0 0-2.321 21.009-.784 54.988a8.814 8.814 0 0 1-.049 1.647" transform="translate(-978.068 -901.747)" style="fill:#1d3f70"/>
                <path data-name="패스 220" d="M1223.193 1151.7c-.458-6.448-2.235-36.227-2.533-39.983-.342-4.319-1.783-5.045-1.783-5.045s2.953 39.393 3.011 41.31v4.882a13 13 0 0 0 1.4.359c1.485.3 3.82.539 5.331-.47 0 0 .058-.513.153-1.458a10.02 10.02 0 0 1-5.579.4" transform="translate(-1088.301 -988.118)" style="fill:#10325b"/>
                <path data-name="패스 221" d="M1279.667 1083.817a212.505 212.505 0 0 0 .662-37.628c-.675-9.7-1.761-15.974-1.772-16.036l-.422.074c.011.062 1.094 6.315 1.767 16a212.04 212.04 0 0 1-.661 37.544z" transform="translate(-1141.21 -919.794)" style="fill:#10325b"/>
                <path data-name="패스 222" d="M1131.782 1088.451c2.629-26.921 3.6-53.084 3.613-53.345l-.428-.016c-.009.261-.984 26.412-3.611 53.319z" transform="translate(-1010.155 -924.202)" style="fill:#10325b"/>
                <path data-name="패스 223" d="m1248.1 575.751 6.254 10.555a33.645 33.645 0 0 0 6.5-10.552 39.443 39.443 0 0 0 1.741-21.086c-.149-.751-.262-1.163-.262-1.163a4.3 4.3 0 0 1-3.266 0q0 .562-.013 1.108c-.4 12.574-9.539 18.555-10.957 21.142" transform="translate(-1114.397 -494.205)" style="fill:#3a72aa"/>
                <path data-name="패스 224" d="M1196 705.849a21.638 21.638 0 0 0-.356-5.952c-.494-2.295-4.137-1.407-3.532.849a20.7 20.7 0 0 1 .234 5.239c-3.419 1.025 6.864 4.393 3.653-.136" transform="translate(-1063.983 -623.719)" style="fill:#f99370"/>
                <path data-name="패스 225" d="M1195.592 700.18c0 .026.007.054.013.08l.022.109a20.377 20.377 0 0 1 .324 3.9 6.377 6.377 0 0 0 3.633.333 26.51 26.51 0 0 0-.347-4.759c-.042-.191-.073-.3-.078-.327q-.019-.078-.044-.152a1.813 1.813 0 0 0-1.056-1.11 1.818 1.818 0 0 0-2.022.484c-.011.01-.02.022-.03.033a1.813 1.813 0 0 0-.414 1.405" transform="translate(-1067.496 -623.342)" style="fill:#e57d61"/>
                <path data-name="패스 226" d="M1099.869 1524.879s4.575 1.05 6.931-.078c0 0 .1-.563.268-1.569a16.628 16.628 0 0 1-7.15 0c-.018.981-.035 1.566-.049 1.647" transform="translate(-982.042 -1360.05)" style="fill:#10325b"/>
                <path data-name="패스 227" d="M1235.125 651.241a10.034 10.034 0 0 0-1.169-3.167l-1.019.723z" transform="translate(-1100.854 -578.646)" style="fill:#1d3f70"/>
                <path data-name="패스 228" d="M1180.155 649.1a5.577 5.577 0 0 1-4.748 2.174 4.305 4.305 0 0 1-1.507-.316 3.792 3.792 0 0 1-.462-.23c-7.189-5.216-.452-16.761 4.821-8.5 1.7 2.292 4.172 3.267 1.9 6.869" transform="translate(-1044.933 -570.847)" style="fill:#f99370"/>
                <path data-name="패스 229" d="M1225.668 684.688a.251.251 0 1 0-.316.163.25.25 0 0 0 .316-.163" transform="translate(-1093.927 -611.046)" style="fill:#c16256"/>
                <path data-name="패스 230" d="M1244.591 678.276a.251.251 0 1 0-.316.162.251.251 0 0 0 .316-.162" transform="translate(-1110.822 -605.321)" style="fill:#c16256"/>
                <path data-name="패스 231" d="M1238.683 685.93a1.027 1.027 0 0 1-.424.037.095.095 0 1 1 .028-.188.851.851 0 0 0 .789-.332c.013-.053-.062-.092-.128-.115-.578-.2-1.1-1.149-1.119-1.189a.1.1 0 0 1 .038-.129.094.094 0 0 1 .129.038c.005.009.506.923 1.015 1.1.277.1.267.27.249.34a.814.814 0 0 1-.578.437" transform="translate(-1105.212 -610.726)" style="fill:#c16256"/>
                <path data-name="패스 232" d="M1178.175 641.3c-1.459-.49-3.791.551-4.989.736a4 4 0 0 1-1.242 3.8c.131 1.909-.045 2.781 2.261 4.762a3.8 3.8 0 0 1-.462-.23c-6.914-4.964-.81-16.347 4.435-9.065" transform="translate(-1045.238 -570.485)" style="fill:#e57d61"/>
                <path data-name="패스 233" d="M1167.127 611.658c-1.018-1.4-3.441-1.85-5.11.351-1.285 1.695-2.929 1.95-2.648 3.469-2.826 1.881-.765 4.995-.765 4.995l1.5-.43a4.747 4.747 0 0 0 1.126-3.766 4.065 4.065 0 0 0 1.148-.279 7.529 7.529 0 0 1 4.066-.62c1.345.261 1.822-2.161.683-3.72" transform="translate(-1033.836 -545.084)" style="fill:#1d3f70"/>
                <path data-name="패스 234" d="M1163.476 700.006a1.213 1.213 0 1 0 .576-1.8 1.353 1.353 0 0 0-.576 1.8" transform="translate(-1038.726 -623.35)" style="fill:#f99370"/>
                <path data-name="패스 235" d="M1168.224 703.337c-.026-.005-.642-.135-.919.219a.611.611 0 0 0-.12.335v.036a2.066 2.066 0 0 0 .262.928.1.1 0 0 0 .112.049l.016-.006a.1.1 0 0 0 .043-.127 2.107 2.107 0 0 1-.241-.756 1.3 1.3 0 0 1 .929.576.1.1 0 0 0 .161-.1 1.466 1.466 0 0 0-1.076-.671.386.386 0 0 1 .066-.148c.2-.261.725-.152.729-.151a.095.095 0 0 0 .04-.186" transform="translate(-1042.142 -627.965)" style="fill:#c16256"/>
                <path data-name="패스 236" d="M1127.654 1011.1s-.256.741-2.116 1.69-6.866 1.648-6.866 1.648a3.9 3.9 0 0 1-1.012-1.228 2.445 2.445 0 0 1-.959 1.228 23.615 23.615 0 0 1-11.532-3.338s-.389-.231.143-1.161z" transform="translate(-986.652 -901.747)" style="fill:#f4d4be"/>
                <path data-name="패스 237" d="m1173.1 709.157-.859-.537a.421.421 0 0 0-.027-.113.427.427 0 1 0-.253.561l.859.537a.264.264 0 1 0 .281-.448" transform="translate(-1045.905 -632.368)" style="fill:#fdffde"/>
                <path data-name="패스 238" d="M1128.288 789s-11.829 3.721-22.342-1.161c0 0-.935-1.6 1.2-9.047.783-2.732.384-6.623.6-7.973a12.741 12.741 0 0 1 7.053-9.482l.87.438c.793 1.865 2.259 2.019 3.04 1.648a1.363 1.363 0 0 0 .6-1.646 1.258 1.258 0 0 0 1.687-.586c2.118 1.769 5.73 7.145 6.445 11.412.653 3.9 1.485 12.415.85 16.4" transform="translate(-987.286 -679.646)" style="fill:#3a72aa"/>
                <path data-name="패스 239" d="M1371.158 818.994a1.932 1.932 0 0 0-.169.144c.057-.047.113-.094.169-.144" transform="translate(-1224.117 -731.256)" style="fill:#a523a2"/>
                <path data-name="패스 240" d="M1068.769 801.074c.031.043.062.086.1.129a1.421 1.421 0 0 0-.1-.129" transform="translate(-954.273 -715.256)" style="fill:#a523a2"/>
                <path data-name="패스 241" d="M1196.436 761.192s.531 2.779-1.1 3.654a2.309 2.309 0 0 1-1.354-.767 1.791 1.791 0 0 1-1.1.913 3.736 3.736 0 0 1-2.644-3.654 1.343 1.343 0 0 1 .87.438 3.5 3.5 0 0 0 2.538 1.138c1.022-.012 1.1-1.135 1.1-1.135a3.135 3.135 0 0 1 1.687-.586" transform="translate(-1062.729 -679.646)" style="fill:#f4d4be"/>
                <path data-name="패스 242" d="M1234.088 707.689a.91.91 0 0 1-.4-.3.422.422 0 0 1-.075-.407c.1-.25.465-.332.833-.186s.578.456.479.707a.423.423 0 0 1-.334.245.752.752 0 0 1-.142.013.979.979 0 0 1-.358-.072m.684-.245c.064-.161-.114-.39-.389-.5s-.561-.065-.625.1a.27.27 0 0 0 .057.255.815.815 0 0 0 .742.295.27.27 0 0 0 .216-.146" transform="translate(-1101.433 -631.013)" style="fill:#c16256"/>
                <path data-name="패스 243" d="M1235.384 668.869a.12.12 0 0 0 .1-.047c.262-.344.8-.071.8-.069a.12.12 0 1 0 .111-.213.883.883 0 0 0-1.1.136.12.12 0 0 0 .1.193" transform="translate(-1102.932 -596.803)" style="fill:#c16256"/>
                <path data-name="패스 244" d="M1218.033 674.053a.12.12 0 0 0 .118-.1.668.668 0 0 1 .274-.454.721.721 0 0 1 .49-.079.12.12 0 0 0 .056-.234.955.955 0 0 0-.675.11.9.9 0 0 0-.38.609.12.12 0 0 0 .094.142h.024" transform="translate(-1087.439 -601.054)" style="fill:#c16256"/>
                <path data-name="패스 245" d="M1371.1 496.018c.681-.987-.76-1.939-.791-.538l.011-.017a.479.479 0 0 0 .779.555" transform="translate(-1223.438 -441.769)" style="fill:#f99370"/>
                <path data-name="패스 246" d="M1364.605 494.237c.52-1.522-1.314-1.528-.863-.469-.008-.009 0-.017 0 .008a.3.3 0 0 1-.015.088s0 .012 0 0a.478.478 0 0 0 .879.377" transform="translate(-1217.582 -440.209)" style="fill:#f99370"/>
                <path data-name="패스 247" d="m1357.574 493.342.041-.479a.478.478 0 0 0-.953-.082l-.041.479a.478.478 0 0 0 .953.082" transform="translate(-1211.286 -439.61)" style="fill:#f99370"/>
                <path data-name="패스 248" d="M1346.459 504.564s-1.25-3.025-.33-4.908l3.149.369a9.776 9.776 0 0 1 0 4.764z" transform="translate(-1201.619 -446.128)" style="fill:#f99370"/>
                <path data-name="패스 249" d="M1346.816 475c-.24-.625.358-5.461 1.277-5.05.374.151.16.577.089.853a9.572 9.572 0 0 0-.31 3.189c-.02.531.457 1.266-.2 1.568a.619.619 0 0 1-.856-.56" transform="translate(-1202.486 -419.58)" style="fill:#f99370"/>
                <path data-name="패스 250" d="M1329.031 496.63c.864.992 1.764 1.992 2.7 2.909a.777.777 0 1 1-1.183 1c-.782-1.127-1.477-2.271-2.167-3.448a.4.4 0 0 1 .653-.463" transform="translate(-1186.019 -443.3)" style="fill:#f99370"/>
                <path data-name="패스 251" d="M1371.3 506.133c-.529.11-.711-.512-.345-.209.4.252.5-.155.667-.112.1.153-.2.293-.322.321" transform="translate(-1223.917 -451.622)" style="fill:#e57d61"/>
                <path data-name="패스 252" d="M1364.407 497.107c-.195.07-.7-.15-.564-.379.165-.023.2.366.607.217.258-.1.3-.422.307-.665.028-.1-.139-.368-.012-.43a.073.073 0 0 1 .089.05c.132.422.093 1.093-.426 1.208" transform="translate(-1217.715 -442.726)" style="fill:#e57d61"/>
                <path data-name="패스 253" d="M1356.61 494.954a.554.554 0 0 1-.658-.587l.041-.479a.072.072 0 0 1 .144.012l-.041.479a.406.406 0 0 0 .809.07 2 2 0 0 0-.032-.754.072.072 0 0 1 .138-.042c.112.659.141 1.13-.4 1.3" transform="translate(-1210.688 -440.723)" style="fill:#e57d61"/>
                <path data-name="패스 254" d="M1347.832 511.941a6.58 6.58 0 0 0-2.116-1.908c-.125-.44 1.558.691 2.165 1.8a.073.073 0 0 1-.05.1" transform="translate(-1201.546 -455.307)" style="fill:#e57d61"/>
                <path data-name="패스 255" d="M1050.077 575.054a33.705 33.705 0 0 0 6.295 11.539q.448.54.931 1.072l6.254-10.555c-1.417-2.585-10.537-8.56-10.957-21.112q-.019-.561-.014-1.138a4.3 4.3 0 0 1-3.266 0s-.1.348-.227.987a39.812 39.812 0 0 0 .984 19.2" transform="translate(-936.047 -495.419)" style="fill:#3a72aa"/>
                <path data-name="패스 256" d="M1060.9 494.9c-.643-1.013.834-1.908.811-.507l-.011-.018a.479.479 0 0 1-.8.524" transform="translate(-947.104 -440.785)" style="fill:#f99370"/>
                <path data-name="패스 257" d="M1067.692 493.4c-.46-1.541 1.373-1.476.88-.435.009-.009.005-.017 0 .008a.3.3 0 0 0 .011.088s0 .012 0 0a.478.478 0 0 1-.893.342" transform="translate(-953.245 -439.475)" style="fill:#f99370"/>
                <path data-name="패스 258" d="m1075.081 492.75-.022-.481a.478.478 0 0 1 .955-.045l.022.481a.478.478 0 0 1-.955.045" transform="translate(-959.888 -439.097)" style="fill:#f99370"/>
                <path data-name="패스 259" d="M1061.62 504.457s1.367-2.974.521-4.892l-3.161.246a9.776 9.776 0 0 0-.182 4.76z" transform="translate(-945.164 -446.047)" style="fill:#f99370"/>
                <path data-name="패스 260" d="M1082.045 474.611c.265-.615-.145-5.471-1.079-5.1-.38.136-.182.57-.122.849a9.576 9.576 0 0 1 .186 3.2c0 .531-.506 1.247.138 1.575a.619.619 0 0 0 .877-.526" transform="translate(-964.961 -419.198)" style="fill:#f99370"/>
                <path data-name="패스 261" d="M1080.368 497.176c-.9.957-1.84 1.921-2.809 2.8a.777.777 0 1 0 1.143 1.047c.826-1.1 1.564-2.211 2.3-3.361a.4.4 0 0 0-.634-.487" transform="translate(-961.887 -443.798)" style="fill:#f99370"/>
                <path data-name="패스 262" d="M1061.991 504.9c.524.13.73-.484.353-.195-.411.236-.492-.174-.662-.138-.11.149.186.3.309.333" transform="translate(-947.924 -450.508)" style="fill:#e57d61"/>
                <path data-name="패스 263" d="M1067.441 496.11c.192.078.707-.122.578-.357-.164-.029-.219.358-.615.193-.253-.112-.284-.433-.28-.677-.024-.1.153-.362.029-.429a.072.072 0 0 0-.091.046c-.148.417-.135 1.088.379 1.224" transform="translate(-952.676 -441.825)" style="fill:#e57d61"/>
                <path data-name="패스 264" d="M1074.843 494.246a.554.554 0 0 0 .681-.561l-.023-.481a.072.072 0 0 0-.144.007l.023.481a.406.406 0 0 1-.811.038 2.011 2.011 0 0 1 .061-.752.072.072 0 0 0-.137-.047c-.137.654-.184 1.124.35 1.315" transform="translate(-959.303 -440.08)" style="fill:#e57d61"/>
                <path data-name="패스 265" d="M1073.78 511.864a6.578 6.578 0 0 1 2.188-1.824c.142-.434-1.584.63-2.234 1.718a.073.073 0 0 0 .046.106" transform="translate(-958.698 -455.311)" style="fill:#e57d61"/>
                <path data-name="패스 266" d="M1292.745 767.873a13.344 13.344 0 0 1 1.472 3.9 33.645 33.645 0 0 0 6.5-10.552c-.077.14-2.576 4.635-4.461 6.08a3.286 3.286 0 0 1-3.515.572" transform="translate(-1154.255 -679.672)" style="fill:#23659b"/>
                <path data-name="패스 267" d="M1064.425 743.361a33.707 33.707 0 0 0 6.295 11.539h.132a10.537 10.537 0 0 1 1.607-4.473c-3.2 2.367-8.034-7.066-8.034-7.066" transform="translate(-950.395 -663.725)" style="fill:#23659b"/>
                <path data-name="패스 268" d="M1350.4 553.5q0 .562-.013 1.108a3.722 3.722 0 0 0 3.542.059c-.149-.751-.262-1.163-.262-1.163a4.3 4.3 0 0 1-3.266 0" transform="translate(-1205.72 -494.205)" style="fill:#23659b"/>
                <path data-name="패스 269" d="M1055.235 555.851c1.471 1.288 3.507.148 3.507.148q-.019-.561-.014-1.138a4.3 4.3 0 0 1-3.266 0s-.1.348-.227.987" transform="translate(-942.189 -495.419)" style="fill:#23659b"/>
                <path data-name="패스 270" d="M657.344 718.144c2.669-5.116 6.732-4.646 6.732-4.646s3.532-1.742 6.642 2.239c5.554 7.11-1.964 15.227-7.133 18.577-2.854 1.849-15.626 2.516-15.65-3.956-.02-5.306 6.291-6.236 9.409-12.214" transform="translate(-578.522 -636.723)" style="fill:#1d3f70"/>
                <path data-name="패스 271" d="M824.653 671.492c-.387-2.05.573-3.8 1.362-5.6 1.651-3.885 4.718-7.246 7.277-10.472 2.806-3.968 4.354-8.9 5.69-13.63a1.4 1.4 0 0 1 2.739.4 39.214 39.214 0 0 1-3.647 16.266c-5.7 11.872-12.372 17.813-13.422 13.036" transform="translate(-736.23 -572.15)" style="fill:#f99370"/>
                <path data-name="패스 272" d="M839.9 783.842a18.314 18.314 0 0 0 2.427 3.025c.3.3.589.571.872.813 0 0 2.779-2.956 4.5-5.083l.005-.006.088-.109a15.422 15.422 0 0 0 .97-1.312c1.435-2.275 4.475-10.054 2.144-10.547-1.919-.4-3.32-1.761-4.81-2.647-2.113.152-2.86 4.475-6.7 8.037-2.158 2-1.167 5.206.5 7.834" transform="translate(-748.373 -685.699)" style="fill:#f4d4be"/>
                <path data-name="패스 273" d="M984.855 605.152c.837-.859-.424-2.039-.689-.663l.014-.015c-.446.432.242 1.123.675.678" transform="translate(-878.617 -539.168)" style="fill:#f99370"/>
                <path data-name="패스 274" d="M978.742 602.191c.768-1.414-1.04-1.727-.772-.607-.007-.01 0-.017 0 .007a.3.3 0 0 1-.029.084s-.007.011 0 0a.478.478 0 0 0 .8.519" transform="translate(-873.099 -536.532)" style="fill:#f99370"/>
                <path data-name="패스 275" d="m971.956 600.233.121-.466a.478.478 0 0 0-.925-.241l-.121.466a.478.478 0 0 0 .925.241" transform="translate(-866.988 -534.989)" style="fill:#f99370"/>
                <path data-name="패스 276" d="M957.371 609.258s-.726-3.192.5-4.894l3.042.891a9.776 9.776 0 0 1-.8 4.7z" transform="translate(-854.618 -539.619)" style="fill:#f99370"/>
                <path data-name="패스 277" d="M959.1 581.369c-.132-.657 1.267-5.324 2.1-4.765.343.211.061.6-.055.855a9.579 9.579 0 0 0-.84 3.092c-.109.52.238 1.325-.459 1.513a.619.619 0 0 1-.75-.7" transform="translate(-856.347 -514.792)" style="fill:#f99370"/>
                <path data-name="패스 278" d="M944.057 598.6c.686 1.122 1.406 2.259 2.173 3.32a.777.777 0 1 1-1.334.789c-.583-1.242-1.076-2.486-1.559-3.762a.4.4 0 0 1 .721-.347" transform="translate(-842.252 -534.297)" style="fill:#f99370"/>
                <path data-name="패스 279" d="M984.639 614.8c-.54.02-.615-.624-.3-.263.354.316.517-.069.676 0 .077.169-.243.256-.371.263" transform="translate(-878.721 -548.599)" style="fill:#e57d61"/>
                <path data-name="패스 280" d="M978.1 605.749c-.2.036-.667-.265-.493-.469.167.005.14.395.562.315.271-.057.367-.366.414-.6.045-.094-.075-.386.06-.425a.073.073 0 0 1 .079.064c.059.438-.091 1.093-.622 1.12" transform="translate(-872.845 -539.798)" style="fill:#e57d61"/>
                <path data-name="패스 281" d="M970.931 602.388a.554.554 0 0 1-.551-.689l.121-.466a.072.072 0 0 1 .14.036l-.121.466a.406.406 0 0 0 .786.2 2 2 0 0 0 .1-.748.072.072 0 1 1 .143-.018c0 .668-.051 1.138-.613 1.215" transform="translate(-866.409 -536.714)" style="fill:#e57d61"/>
                <path data-name="패스 282" d="M960.544 616.365a6.58 6.58 0 0 0-1.766-2.235c-.05-.454 1.42.942 1.833 2.141a.073.073 0 0 1-.067.094" transform="translate(-856.064 -548.26)" style="fill:#e57d61"/>
                <path data-name="패스 283" d="m873.856 898.821.342 4.879c.3.3.589.571.872.813 0 0 2.779-2.956 4.5-5.083-.647.748-2.6 2.087-3.237 1.558a160.833 160.833 0 0 1-2.477-2.166" transform="translate(-780.241 -802.531)" style="fill:#eabfac"/>
                <path data-name="패스 284" d="m802.207 834.089-.025 1.264s.99 6.854.008 7.439c-.869.518-3.557-6.874-3.9-7.354 0 0 .109-1.208.092-1.766z" transform="translate(-712.768 -744.362)" style="fill:#f99370"/>
                <path data-name="패스 285" d="m496.95 1347.837-1.476-9.087c.457-.234 2.727-.143 3.522-.362.508-.049 6.892-1.826 7.557-1.989l.847 5.217-6.851.248a1.7 1.7 0 0 0-1.615 1.435c-.367 1.78.255 3.642-.889 4.93a.665.665 0 0 1-1.1-.391" transform="translate(-442.395 -1193.232)" style="fill:#f99370"/>
                <path data-name="패스 286" d="M496.3 1353.243a2.331 2.331 0 0 0-.829.417l1.488 9.162a.659.659 0 0 0 .96.481c.926-.507 2.156-1.946 1.691-6.205a9.043 9.043 0 0 1-.617-3.8 5.74 5.74 0 0 0-2.692-.056" transform="translate(-442.394 -1208.143)" style="fill:#1d3f70"/>
                <path data-name="패스 287" d="m497.935 1364.495-1.632-10.053a2.333 2.333 0 0 0-.829.418l1.488 9.162a.66.66 0 0 0 .974.473" transform="translate(-442.394 -1209.342)" style="fill:#395b96"/>
                <path data-name="패스 288" d="m811.063 1492.375-9.2-.1c-.152-.492.325-2.709.246-3.531 0-.345-.091-2.237-.123-2.582l.688-5.188 4.053.044-.928 6.79a1.7 1.7 0 0 0 1.138 1.835c1.689.663 3.618.375 4.7 1.708a.671.671 0 0 1-.58 1.024" transform="translate(-715.938 -1322.319)" style="fill:#f99370"/>
                <path data-name="패스 289" d="M799.436 1556.145a2.328 2.328 0 0 0 .27.888l9.285.1a.659.659 0 0 0 .638-.863c-.342-1-1.55-2.456-5.827-2.727a9.051 9.051 0 0 1-3.85-.042 5.733 5.733 0 0 0-.516 2.642" transform="translate(-713.776 -1387.078)" style="fill:#1d3f70"/>
                <path data-name="패스 290" d="m809.786 1578.279-10.187-.112a2.33 2.33 0 0 0 .27.888l9.285.1a.66.66 0 0 0 .633-.878" transform="translate(-713.939 -1409.1)" style="fill:#395b96"/>
                <path data-name="패스 291" d="M795.473 779.214c.009.067.021.134.037.2a21.44 21.44 0 0 1 .339 4.1 6.691 6.691 0 0 0 3.816.351 22.627 22.627 0 0 0-.491-5.507 1.913 1.913 0 0 0-3.7.853" transform="translate(-710.233 -693.845)" style="fill:#e57d61"/>
                <path data-name="패스 292" d="M767.629 726.6a7.793 7.793 0 0 0 2.776 4.475 4.283 4.283 0 0 0 2.014.642c4.072.653 8.21-4.607 4.681-7.545-1.256-.9-1.722-2.719-2.748-3.645-1.54-1.736-4.4-1.285-5.755.452a6.4 6.4 0 0 0-.97 5.622" transform="translate(-685.176 -642.354)" style="fill:#f99370"/>
                <path data-name="패스 293" d="m831.451 791.789-1.515-.226a.782.782 0 0 0 1.515.226" transform="translate(-741.026 -706.764)" style="fill:#f9f8f3"/>
                <path data-name="패스 294" d="M824.866 766.258a.26.26 0 0 0-.488-.177.26.26 0 0 0 .488.177" transform="translate(-736.047 -683.863)" style="fill:#c16256"/>
                <path data-name="패스 295" d="M844.665 760.376a.26.26 0 0 0-.488-.177.26.26 0 0 0 .488.177" transform="translate(-753.725 -678.611)" style="fill:#c16256"/>
                <path data-name="패스 296" d="M830.976 791.493c-.029.025-1.516-.225-1.549-.22a.06.06 0 0 1-.05-.068c-.053-.138 1.557.2 1.583.175a.06.06 0 0 1 .017.113" transform="translate(-740.525 -706.414)" style="fill:#c16256"/>
                <path data-name="패스 297" d="M542.4 1052.546a21.029 21.029 0 0 0 .7 5.059c.6-.05 1.191-.1 1.769-.151 16.378-1.433 23.325-3.38 26.064-24.319 0 0 4.555 15.108-1.2 37.043a78.558 78.558 0 0 1-.526 1.921 6.991 6.991 0 0 0 5.4 1.245c3.9-7.419 12.315-27.351 4.879-50.712-4.433-5.128-15.056-7.859-18.235-2.51-5.306 8.929 4.267 25.644-17.018 31.93q-.879.26-1.828.495" transform="translate(-484.289 -908.239)" style="fill:#1d3f70"/>
                <path data-name="패스 298" d="M838.487 768.1c-.158.021-.5.123-.517-.093a.1.1 0 0 1 .115-.078.879.879 0 0 0 .828-.312c.016-.055-.061-.1-.128-.124-.58-.207-1.477-1.657-.934-1.361.005.01.487.974 1.005 1.178.595.311.059.674-.369.79" transform="translate(-747.942 -684.021)" style="fill:#c16256"/>
                <path data-name="패스 299" d="M767.351 726.378a7.792 7.792 0 0 0 2.776 4.475 9.534 9.534 0 0 1-1.577-2.845l.239-.963c5.675-2.633 4.585-7.315 4.585-7.315-4.1-2.24-7.28 2.848-6.025 6.649" transform="translate(-684.898 -642.135)" style="fill:#e57d61"/>
                <path data-name="패스 300" d="M762.483 714.991s1.05 4.62-4 7.19l-2.027-.814c-2.3-3.4.4-9.146 6.028-6.376" transform="translate(-674.685 -637.741)" style="fill:#1d3f70"/>
                <path data-name="패스 301" d="M757.579 677.781c1.773 4.3 6.8 2.323 5.153-2.033-1.773-4.3-6.8-2.323-5.153 2.033" transform="translate(-676.13 -601.213)" style="fill:#1d3f70"/>
                <path data-name="패스 302" d="M759.592 780.108c.621 1.877 2.981 1.067 2.318-.8-.621-1.877-2.981-1.067-2.318.8" transform="translate(-678.114 -694.873)" style="fill:#f99370"/>
                <path data-name="패스 303" d="M763.956 784.893a1.2 1.2 0 0 1-.206-1.406c.348-.353 1.056-.272 1.029-.071-.1.208-.54-.155-.879.2-.351.332.266 1.089.056 1.279" transform="translate(-681.804 -699.335)" style="fill:#c16256"/>
                <path data-name="패스 304" d="M764.848 788.957c-.2.014-.363-.7-1.138-.685a.1.1 0 0 1-.1-.093c.488-.47 1.61.774 1.242.778" transform="translate(-681.802 -703.648)" style="fill:#c16256"/>
                <path data-name="패스 305" d="M774.915 800.16a.221.221 0 0 0 .438-.054.221.221 0 0 0-.438.054" transform="translate(-691.897 -714.224)" style="fill:#f4d4be"/>
                <path data-name="패스 306" d="M792.628 1513.539a6.991 6.991 0 0 0 5.4 1.245s.349-.573.9-1.64c0 0-3.76.354-5.771-1.526q-.245.947-.525 1.921" transform="translate(-707.715 -1349.68)" style="fill:#10325b"/>
                <path data-name="패스 307" d="M828.545 1119.988a79.919 79.919 0 0 0 5.645-20.035 67.921 67.921 0 0 0 .407-15.747 47.794 47.794 0 0 0-3.2-14.008l-.39.178a47.385 47.385 0 0 1 3.164 13.891c.745 7.983.3 20.631-6.022 35.553z" transform="translate(-739.431 -955.549)" style="fill:#10325b"/>
                <path data-name="패스 308" d="M555.253 1098.736c6.274-.6 10.954-1.682 14.308-3.3a13.214 13.214 0 0 0 6.849-6.788c3.3-7.53 3.183-24.236 3.181-24.4h-.429c0 .167.117 16.783-3.145 24.228-2.542 5.8-8.57 8.651-20.806 9.829z" transform="translate(-495.733 -950.237)" style="fill:#10325b"/>
                <path data-name="패스 309" d="M710.548 863.786c5.037 2.414 12.625 3.968 18.516 2a8.514 8.514 0 0 0 .041-3.141c-1.968-7.058 3.873-8-1.418-14.716-1.365-1.733-3.531-3.883-4.324-5.354 0 0 .007 6.639-1.034 6.6-1.426-.055-2.876-7.626-2.876-7.626-.646.03-5.412.724-8.228 15.732-.284 1.522-2.282 4.783-.678 6.5" transform="translate(-633.877 -751.396)" style="fill:#f4d4be"/>
                <path data-name="패스 310" d="M817.3 754.41a.12.12 0 0 0 .1-.072 1.576 1.576 0 0 1 .767-.868.12.12 0 0 0-.083-.225 1.776 1.776 0 0 0-.9 1 .12.12 0 0 0 .123.166" transform="translate(-729.629 -672.543)" style="fill:#c16256"/>
                <path data-name="패스 311" d="M836.624 751.253a.12.12 0 0 0 .015-.236 5.185 5.185 0 0 0-1.136-.068.12.12 0 0 0 0 .24 5.138 5.138 0 0 1 1.077.062.121.121 0 0 0 .04 0" transform="translate(-745.891 -670.499)" style="fill:#c16256"/>
                <path data-name="패스 312" d="M542.4 1342.916a21.029 21.029 0 0 0 .7 5.059q.9-.075 1.769-.151a12.876 12.876 0 0 1-.646-5.4q-.879.26-1.828.495" transform="translate(-484.289 -1198.609)" style="fill:#10325b"/>
                <path data-name="패스 313" d="M647.117 846.57c-4.288 2.449-8.752 5.423-10.917 10.081-2.8 7.191 3.063 13.982 8.648 17.79a8.464 8.464 0 0 0 1.374.969c.586.236.894-.087 1.368-.774a1.208 1.208 0 0 0-.047-1.575c-.4-.508-1.144-1.034-1.494-1.5-7.84-9.249-6.285-13.312 4.319-18.245 4.4-2.146 1.165-8.846-3.25-6.74" transform="translate(-567.398 -755.517)" style="fill:#f99370"/>
                <path data-name="패스 314" d="M711.921 1084.343a3.246 3.246 0 0 1 2.177-2.049.8.8 0 0 0-.524-.583 2.807 2.807 0 0 0-2.322 2.138.979.979 0 0 0 .67.495" transform="translate(-635.056 -965.828)" style="fill:#10325b"/>
                <path data-name="패스 315" d="M639.21 849.674c.237-6.157 7.729-11.234 14.875-12.4 0 0 2.225 2.52 2.619 7.823.108 1.454-3.106 2.528-5.478 3.2-3.868 1.021-4.208 4.494-6.879 4.769 0 0-4.042-.086-5.137-3.392" transform="translate(-570.732 -747.581)" style="fill:#f4d4be"/>
                <path data-name="패스 316" d="M784.126 838.31a2.188 2.188 0 0 1 1.613-.682s.286 8.293-2.575 9.629a8.445 8.445 0 0 1-2.875-4.292c-.885-2.918-1.418-4.839-2.225-5.95 0 0 1.6-.21 2.224.458a22.082 22.082 0 0 1 1.487 3.942 12.644 12.644 0 0 0 1.389 3.428 46.042 46.042 0 0 0 .962-6.534" transform="translate(-694.711 -747.319)" style="fill:#eabfac"/>
                <path data-name="패스 317" d="M730.486 1091.027a.29.29 0 0 1-.342.226h-.02c-.128-.026-.254-.056-.38-.079s-.254-.046-.382-.056a5.739 5.739 0 0 0-.69-.041 7.826 7.826 0 0 0 1.2 1.339c.146.084.3.167.443.248q.405.221.818.433.825.422 1.675.8a.291.291 0 0 1-.2.544q-.905-.275-1.8-.6-.446-.161-.888-.337l-.346-.139-.009.013q.4.352.8.691.458.381.935.738c.316.241.642.466.97.689h.006a.29.29 0 0 1-.3.495 24.05 24.05 0 0 1-2.095-1.275c-.338-.23-.662-.458-.986-.7h-.007a13.27 13.27 0 0 0 .908 1.023c.223.225.451.449.69.661s.483.417.733.617h.005a.29.29 0 0 1-.334.474c-.284-.176-.566-.355-.838-.55s-.541-.395-.8-.6-.516-.43-.764-.659a13.413 13.413 0 0 1-.367-.351l-.16-.163h-.012c.043.074.086.148.132.221a14.883 14.883 0 0 0 .905 1.273c.163.206.332.408.5.609a.291.291 0 0 1-.412.408c-.2-.179-.408-.36-.606-.548s-.393-.38-.584-.579a11.74 11.74 0 0 1-.822-.942l-.13-.171-.047-.065a7.6 7.6 0 0 1-2.312-2.572c-.336-.547 1.044-2.374 1.675-2.351a11.812 11.812 0 0 1 1.941.456c.152.008.3.021.454.039a6.751 6.751 0 0 1 .844.169c.139.032.273.082.409.122s.266.1.4.145a.29.29 0 0 1 .185.331" transform="translate(-646.911 -973.021)" style="fill:#f99370"/>
                <path data-name="패스 318" d="M730.282 927.66a9.478 9.478 0 0 0-3.556 2.41s-.3 1.193-.443 1.858c0 0 .818-2.08 4-4.268" transform="translate(-648.478 -828.281)" style="fill:#eabfac"/>
                <path data-name="패스 319" d="m522.147 601.363.191-1.167-2.785-1.131-.453 1.135a2.608 2.608 0 0 0 3.051 1.167" transform="translate(-463.486 -534.888)" style="fill:#f99370"/>
                <path data-name="패스 320" d="m126.567 1104.163.279-.94-3.337-.328s.2 1.556.236 2.469z" transform="translate(-110.278 -984.742)" style="fill:#f99370"/>
                <path data-name="패스 321" d="m347.6 626.233 1.267 11.5a44.813 44.813 0 0 0 4.286-2.557 38.856 38.856 0 0 0 8.506-7.75 34.166 34.166 0 0 0 7.2-15.438c.126-.764.158-1.193.158-1.193a4.3 4.3 0 0 1-3.051-1.167q-.212.572-.444 1.116c-4.887 11.512-15.688 13.588-17.929 15.5" transform="translate(-310.358 -544.313)" style="fill:#3a72aa"/>
                <path data-name="패스 322" d="M120.454 814.752c.062.689.112 1.072.112 1.072 1.153.766 3.337.329 3.337.329.136-.372.275-.77.418-1.191 1.586-4.671 3.552-12.117 4.615-16.6 1.415-5.969 6.014-6.931 6.96-8.355l-3.069-8.628c-13.993 6.192-12.843 28.241-12.373 33.371" transform="translate(-107.335 -697.672)" style="fill:#3a72aa"/>
                <path data-name="패스 323" d="M555.745 564.565c.988-.679-.019-2.082-.547-.784l.017-.012a.478.478 0 0 0 .53.8" transform="translate(-495.545 -502.909)" style="fill:#f99370"/>
                <path data-name="패스 324" d="M550.188 560.286c1.028-1.237-.683-1.9-.639-.746 0-.011 0-.017-.006.006a.3.3 0 0 1-.045.077s-.009.01 0 0c-.438.44.262 1.118.687.665" transform="translate(-490.51 -499.065)" style="fill:#f99370"/>
                <path data-name="패스 325" d="m544.025 557.151.209-.433a.478.478 0 0 0-.861-.416l-.209.433a.478.478 0 0 0 .861.417" transform="translate(-484.927 -496.467)" style="fill:#f99370"/>
                <path data-name="패스 326" d="M523.368 563.456s-.09-3.272 1.441-4.7l2.81 1.467a9.778 9.778 0 0 1-1.7 4.45z" transform="translate(-467.299 -498.893)" style="fill:#f99370"/>
                <path data-name="패스 327" d="M528.679 538.435c0-.67 2.28-4.975 2.992-4.263.3.274-.056.6-.221.828a9.576 9.576 0 0 0-1.426 2.869c-.208.489-.024 1.346-.745 1.394a.619.619 0 0 1-.6-.828" transform="translate(-472.012 -476.875)" style="fill:#f99370"/>
                <path data-name="패스 328" d="M517.9 549.876c.454 1.234.939 2.49 1.484 3.679a.777.777 0 1 1-1.462.514c-.33-1.332-.571-2.648-.8-3.994a.4.4 0 0 1 .775-.2" transform="translate(-461.721 -490.737)" style="fill:#f99370"/>
                <path data-name="패스 329" d="M555.148 573.095c-.533-.086-.482-.731-.248-.318.285.379.521.033.663.133.043.18-.289.2-.415.185" transform="translate(-495.304 -511.293)" style="fill:#e57d61"/>
                <path data-name="패스 330" d="M549.244 564.644c-.207 0-.6-.39-.392-.555.163.037.061.415.49.419.277 0 .432-.287.524-.513.062-.083 0-.393.141-.406a.073.073 0 0 1 .065.079c-.028.441-.3 1.054-.829.977" transform="translate(-490.001 -503.212)" style="fill:#e57d61"/>
                <path data-name="패스 331" d="M542.949 559.106a.554.554 0 0 1-.406-.783l.209-.433a.072.072 0 0 1 .13.063l-.209.433a.406.406 0 0 0 .731.354 2.008 2.008 0 0 0 .239-.716.072.072 0 0 1 .144.01c-.131.655-.271 1.106-.838 1.072" transform="translate(-484.372 -498.087)" style="fill:#e57d61"/>
                <path data-name="패스 332" d="M531.169 569.966a6.581 6.581 0 0 0-1.3-2.536c.039-.455 1.21 1.2 1.381 2.457a.073.073 0 0 1-.084.08" transform="translate(-473.108 -506.573)" style="fill:#e57d61"/>
                <path data-name="패스 333" d="m279.929 755.742-.008 1.264c.775.708-.071 1.94-.721 1.965-.99.039-2.832-1.368-3.172-1.827 0 0 .093-1.209.067-1.767z" transform="translate(-246.458 -674.455)" style="fill:#f99370"/>
                <path data-name="패스 334" d="M272.447 700.746c.01.066.023.134.039.2a21.443 21.443 0 0 1 .395 4.1 6.69 6.69 0 0 0 3.821.3 22.628 22.628 0 0 0-.567-5.5 1.913 1.913 0 0 0-3.688.9" transform="translate(-243.235 -623.759)" style="fill:#e57d61"/>
                <path data-name="패스 335" d="M288.531 639.162s.142-3.084-2.631-3.715l-1.507 1.473z" transform="translate(-253.926 -567.372)" style="fill:#8e4a35"/>
                <path data-name="패스 336" d="M246.379 649.293a7.724 7.724 0 0 0 2.782 4.414 4.236 4.236 0 0 0 2 .621c4.073.587 8.087-4.582 4.582-7.51-1.281-.92-1.671-2.61-2.749-3.592-1.538-1.709-4.365-1.242-5.7.489a6.344 6.344 0 0 0-.919 5.578" transform="translate(-219.756 -573.363)" style="fill:#f99370"/>
                <path data-name="패스 337" d="M303.065 688.434a.257.257 0 0 0-.485-.172.257.257 0 0 0 .485.172" transform="translate(-270.149 -614.38)" style="fill:#c16256"/>
                <path data-name="패스 338" d="M322.635 682.464a.257.257 0 0 0-.485-.172.257.257 0 0 0 .485.172" transform="translate(-287.623 -609.049)" style="fill:#c16256"/>
                <path data-name="패스 339" d="M246.379 649.366a7.724 7.724 0 0 0 2.782 4.414 3.6 3.6 0 0 0 .379.209 8.7 8.7 0 0 1-2.011-2.952v-1.856a3.488 3.488 0 0 0 .472-3.64c2.833.411 3.534-1.4 3.534-1.4a3.692 3.692 0 0 0 1.731-.555 3.809 3.809 0 0 0-5.971.2 6.344 6.344 0 0 0-.919 5.577" transform="translate(-219.756 -573.436)" style="fill:#e57d61"/>
                <path data-name="패스 340" d="M240.7 666.779c1.222.308 1.981 2.953-.524 5.155 0 0-1.909-4.272.524-5.155" transform="translate(-213.806 -595.348)" style="fill:#8e4a35"/>
                <path data-name="패스 341" d="M316.43 690.137c.466-.066 1.151-.476.507-.813-.655-.249-.913-1.27-1.135-1.2-.194.091.484 1.124 1.065 1.385.408.182-.35.509-.69.437a.1.1 0 0 0-.113.078c0 .177.244.12.367.117" transform="translate(-281.94 -614.4)" style="fill:#c16256"/>
                <path data-name="패스 342" d="M238.609 702.492c.664 1.86 2.937 1.062 2.291-.805-.664-1.86-2.937-1.061-2.291.805" transform="translate(-212.945 -625.572)" style="fill:#f99370"/>
                <path data-name="패스 343" d="M242.867 707.333a.1.1 0 0 0 .076-.137c-.463-.919-.177-1.457.622-1.264a.1.1 0 0 0 .047-.189c-.847-.224-1.44.371-.846 1.534a.1.1 0 0 0 .1.056" transform="translate(-216.544 -630.096)" style="fill:#c16256"/>
                <path data-name="패스 344" d="M243.752 711.374c.3-.063-.4-.913-1.133-.867a.1.1 0 0 0 .012.194c.759-.02.941.671 1.121.673" transform="translate(-216.546 -634.39)" style="fill:#c16256"/>
                <path data-name="패스 345" d="M232.963 616.2c.787-1.151 2.309-1.886 2.539-3.008a4.8 4.8 0 0 1 .787 2.163 8.821 8.821 0 0 0 .951-1.766 2.621 2.621 0 0 1 .952 1.4 4.7 4.7 0 0 1 2.695-.087 3.732 3.732 0 0 1-3.433 3.01 3.7 3.7 0 0 1-4.517 1.088l-1.369 2.342c-2.474-3.235.525-4.778 1.395-5.14" transform="translate(-205.906 -547.5)" style="fill:#8e4a35"/>
                <path data-name="패스 346" d="M245.67 710.657a.445.445 0 0 0 .826-.331.445.445 0 0 0-.826.331" transform="translate(-219.318 -633.986)" style="fill:#fdffde"/>
                <path data-name="패스 347" d="M248.767 712.845a.277.277 0 0 0 .112-.506l-1.186-.75a.275.275 0 0 0-.294.466c.114.044 1.253.867 1.368.79" transform="translate(-220.781 -635.316)" style="fill:#fdffde"/>
                <path data-name="패스 348" d="M313.273 713.737h.01a3.292 3.292 0 0 0 1.72-.35.12.12 0 0 0-.121-.208 3.107 3.107 0 0 1-1.586.318.12.12 0 0 0-.023.239" transform="translate(-279.62 -636.763)" style="fill:#c16256"/>
                <path data-name="패스 349" d="M350.017 1486.428h-9.153a.728.728 0 0 1-.727-.767 5.81 5.81 0 0 1 .081-.71 12.225 12.225 0 0 0 .173-2.308q-.01-.555-.067-1.109l-.659-6.421a.727.727 0 0 1 .724-.8h4.039a.727.727 0 0 1 .722.817l-.735 5.85a2.546 2.546 0 0 0 1.918 2.785c.893.222 1.8.355 2.449.522.084.022.167.044.248.068a2.7 2.7 0 0 1 1.585.936.728.728 0 0 1-.6 1.138" transform="translate(-303.275 -1316.371)" style="fill:#f99370"/>
                <path data-name="패스 350" d="M341.29 1554.911c.025.448.247.959.767.948h9.494a.7.7 0 0 0 .664-.948c-.369-1.035-1.678-2.578-6.164-2.831a16.061 16.061 0 0 1-4.239-.006 4.6 4.6 0 0 0-.522 2.837" transform="translate(-304.695 -1385.802)" style="fill:#1d3f70"/>
                <path data-name="패스 351" d="M352.524 1578.555H341.6a2.494 2.494 0 0 0 .3.948h9.961a.7.7 0 0 0 .67-.932l-.006-.016" transform="translate(-305.004 -1409.446)" style="fill:#395b96"/>
                <path data-name="패스 352" d="m198.255 1485.483-5.561.074a2.352 2.352 0 0 1 .361-1.468c1.117-1.483-.216-8.115-.178-9.848-.259-.474 4.829-.1 4.91-.214a.2.2 0 0 1 .2.212l-.6 7.578c-.27 1.439.835 2.309.874 3.665" transform="translate(-172.051 -1316.086)" style="fill:#f99370"/>
                <path data-name="패스 353" d="M191.976 1555.859h4.058a.9.9 0 0 0 .9-.932v-.016a2.7 2.7 0 0 0-2.928-2.837 2.666 2.666 0 0 0-2.929 2.837v.02a.9.9 0 0 0 .9.929" transform="translate(-170.605 -1385.802)" style="fill:#1d3f70"/>
                <path data-name="패스 354" d="M191.976 1579.5h4.058a.9.9 0 0 0 .9-.932v-.016h-5.857v.02a.9.9 0 0 0 .9.929" transform="translate(-170.605 -1409.446)" style="fill:#395b96"/>
                <path data-name="패스 355" d="M180.978 1066.577s4.575 1.05 6.931-.078c0 0 .1-.562.268-1.569 1-5.912 4.512-31.971 5.55-44.625 0 0 2.417 37.056 2.921 44.625.062.934.1 1.492.091 1.569a13.017 13.017 0 0 0 1.4.358c1.485.3 3.82.539 5.331-.469 0 0 .058-.513.153-1.458.683-6.782 4.432-32.656.531-53.827 0 0-13.828 1.27-22.342-1.161 0 0-2.321 21.009-.784 54.988a8.82 8.82 0 0 1-.049 1.647" transform="translate(-161.164 -901.747)" style="fill:#1d3f70"/>
                <path data-name="패스 356" d="M308.275 1151.7c-.458-6.448-2.235-36.227-2.533-39.983-.342-4.319-1.783-5.045-1.783-5.045s2.953 39.393 3.011 41.31v4.882a13 13 0 0 0 1.4.359c1.485.3 3.82.539 5.331-.47 0 0 .058-.513.153-1.458a10.02 10.02 0 0 1-5.579.4" transform="translate(-271.397 -988.118)" style="fill:#10325b"/>
                <path data-name="패스 357" d="M364.75 1083.817a212.51 212.51 0 0 0 .662-37.628c-.675-9.7-1.762-15.974-1.772-16.036l-.422.074c.011.062 1.094 6.315 1.767 16a212.041 212.041 0 0 1-.661 37.544z" transform="translate(-324.307 -919.794)" style="fill:#10325b"/>
                <path data-name="패스 358" d="M216.864 1088.451c2.629-26.921 3.6-53.084 3.613-53.345l-.428-.016c-.009.261-.984 26.412-3.611 53.319z" transform="translate(-193.251 -924.202)" style="fill:#10325b"/>
                <path data-name="패스 359" d="M184.951 1524.879s4.575 1.05 6.931-.078c0 0 .1-.563.268-1.569a16.628 16.628 0 0 1-7.15 0c-.018.981-.035 1.566-.049 1.647" transform="translate(-165.137 -1360.05)" style="fill:#10325b"/>
                <path data-name="패스 360" d="M189.806 799.524c6.753 2.566 15.974 2.4 23-.347 0 0 .5-13.188-.69-20.473-1.446-1.2-6.057-7.423-9.148-8.333 0 .02.009.037.013.062.2 1.9-.942 2.068-3.934.1-6.488.593-7.74 7.209-8.074 13.212-.2 2.676-1.163 15.781-1.163 15.781" transform="translate(-169.472 -687.841)" style="fill:#3a72aa"/>
                <path data-name="패스 361" d="M237.957 766.48q.027.262.064.521a25.143 25.143 0 0 0 1.555 5.648 8.4 8.4 0 0 1 .586 2.4l2.455 1.74-.782 2.4a21.911 21.911 0 0 0 4.2 5.811 21.305 21.305 0 0 0 4.11-6l-.954-2.672 1.43-2.357c.054-.547.08-1.107.083-1.667a27.246 27.246 0 0 0-.251-3.663 33.936 33.936 0 0 0-.752-3.943c-.72.125-1.395.239-1.97.336-.9.151-1.555.255-1.746.285l-.03-.013v.017l-.032.005.041.04a1.643 1.643 0 0 1-.154 1.161c-.356.491-1.319.6-3.781-1.064a13.233 13.233 0 0 0-2.161.445 16.744 16.744 0 0 0-1.917.574" transform="translate(-212.465 -682.771)" style="fill:#23659b"/>
                <path data-name="패스 362" d="M255.854 768.7v.008c.021.065.173.509.42 1.22v.006c.675 1.937 2.064 5.841 3.5 9.445.809 2.029 1.635 3.962 2.358 5.393a38.1 38.1 0 0 0 1.452-6.081 38.877 38.877 0 0 0 .5-5.878 30.747 30.747 0 0 0-.192-3.665q-.075-.661-.184-1.325c-.9.149-1.755.276-1.776.273 0 0 .078.714-.237 1.013-.511.484-1.829.59-3.684-.853a13.207 13.207 0 0 0-2.161.445" transform="translate(-228.445 -685.568)" style="fill:#f4d4be"/>
                <path data-name="패스 363" d="M293.3 795.566c-.208 2.949-.605 6.715-.784 8.356a25.88 25.88 0 0 0 2.3 5.661 22.033 22.033 0 0 0 1.507-6.349 46.4 46.4 0 0 0-1.775-7.923z" transform="translate(-261.175 -710.11)" style="fill:#1d3f70"/>
                <path data-name="패스 364" d="M301.084 785.519a.789.789 0 0 1-1.249.255l.045-1.236.579-.193z" transform="translate(-267.714 -700.319)" style="fill:#1d3f70"/>
                <path data-name="패스 365" d="M267.5 768.359a2.834 2.834 0 0 1 1.557-.236s.382 1.487-1.56 3.077a4 4 0 0 0-.9-.991l-.57 1.32s-3.359-.934-3.939-2.759a3.165 3.165 0 0 1 1.493-.251 23.483 23.483 0 0 0 2.861 1.154 4.331 4.331 0 0 0 1.06-1.314" transform="translate(-234.009 -685.83)" style="fill:#eabfac"/>
                <path data-name="패스 366" d="M306.134 982.217a.629.629 0 1 0 .71-.537.629.629 0 0 0-.71.537" transform="translate(-273.333 -876.509)" style="fill:#23659b"/>
                <path data-name="패스 367" d="M304.9 1020.452a.629.629 0 1 0 .71-.537.629.629 0 0 0-.71.537" transform="translate(-272.229 -910.648)" style="fill:#23659b"/>
                <path data-name="패스 368" d="M313.66 672.485a.12.12 0 0 0 .057-.006l.749-.27a.12.12 0 0 0-.081-.226l-.749.27a.12.12 0 0 0 .024.232" transform="translate(-279.965 -599.988)" style="fill:#c16256"/>
                <path data-name="패스 369" d="M296.924 677.768a.119.119 0 0 0 .082-.018l.838-.541a.12.12 0 1 0-.13-.2l-.838.541a.12.12 0 0 0 .049.22" transform="translate(-265.023 -604.463)" style="fill:#c16256"/>
                <path data-name="패스 370" d="M122.68 1115.347c-.5.207-.794-1.051-1.209-1.322a7.727 7.727 0 0 0-.218 1.763c.213 1.061.482 2.109.8 3.145-.381 1.6-1.515-2.382-1.7-2.752h-.016a24.439 24.439 0 0 0 .178 3.394c-.754 1.556-1.023-3.052-1.09-3.476h-.008a14.211 14.211 0 0 0-.2 3.232c-.9 1.5-.809-3.2-.735-3.63l-.011-.006a14.5 14.5 0 0 0-.569 2.511c-1.038 1.277-.382-2.779-.271-3.164a9.482 9.482 0 0 1 .593-3.228c.2-.6 2.452-1.7 2.822-1.2a19.379 19.379 0 0 1 1.174 2.421c.3.482.9 1.823.464 2.313" transform="translate(-104.752 -991.521)" style="fill:#f99370"/>
                <path data-name="패스 371" d="M122.455 1092.881c.062.689.112 1.072.112 1.072 1.153.766 3.337.329 3.337.329.136-.372.275-.77.418-1.191a8.448 8.448 0 0 1-3.867-.21" transform="translate(-109.337 -975.802)" style="fill:#23659b"/>
                <path data-name="패스 372" d="M514.955 610.737a4.982 4.982 0 0 0 3.336 1.244c.126-.764.157-1.193.157-1.193a4.3 4.3 0 0 1-3.051-1.167q-.212.572-.443 1.116" transform="translate(-459.789 -544.313)" style="fill:#23659b"/>
                <path data-name="패스 373" d="M392.616 780.081s.326 1.621.578 3.463h.152a38.858 38.858 0 0 0 8.506-7.75c-.152.139-5.9 6.587-9.237 4.289" transform="translate(-350.556 -692.681)" style="fill:#23659b"/>
                <path data-name="패스 374" d="M195.439 886.164a52.142 52.142 0 0 0-2.024 8.331l-.252 3.419s1.974-10.2 2.275-11.87z" transform="translate(-172.471 -791.122)" style="fill:#23659b"/>
            </g>
        </g>
    </g>
</svg>
