<svg xmlns="http://www.w3.org/2000/svg" width="124.675" height="26.454" viewBox="0 0 124.675 26.454">
    <g style="opacity:.4">
        <path data-name="패스 43" d="M20.214 296.543a3.814 3.814 0 0 1 .765-5.339l2.244-1.682-6.305-4.722a3.823 3.823 0 0 0-.924-.51 3.814 3.814 0 0 1 2.414 3.547v7.611l2.53 1.9a3.814 3.814 0 0 0 4.688-.089l-.073.055a3.814 3.814 0 0 1-5.339-.765" transform="translate(-10.474 -275.669)" style="fill:#383838"/>
        <path data-name="패스 44" d="M5.548 285.255a3.815 3.815 0 0 1 4.416-1.274 3.814 3.814 0 0 0-5.214 3.547V298a3.814 3.814 0 0 0 7.627 0v-2.864l-6.065-4.545a3.814 3.814 0 0 1-.765-5.339" transform="translate(-4.443 -275.361)" style="fill:#111"/>
        <path data-name="패스 45" d="M10.005 284a3.813 3.813 0 0 0-3.651 6.613l6.065 4.545v-7.611A3.814 3.814 0 0 0 10.005 284" transform="translate(-4.484 -275.377)" style="fill:#444"/>
        <path data-name="패스 46" d="M38.86 284.215a3.815 3.815 0 0 0-.924.51l-6.351 4.76 2.288 1.715a3.815 3.815 0 0 1 .115 6.015l2.457-1.842v-7.611a3.813 3.813 0 0 1 2.414-3.547" transform="translate(-18.837 -275.629)" style="fill:#383838"/>
        <path data-name="패스 47" d="M30.277 302.634a3.814 3.814 0 0 0-.765-5.339l-2.289-1.715-2.244 1.682a3.814 3.814 0 0 0 4.574 6.1l.073-.055a3.818 3.818 0 0 0 .65-.676" transform="translate(-14.474 -281.725)" style="fill:#111"/>
        <path data-name="패스 48" d="M45.882 283.641a3.8 3.8 0 0 0-1.4.266 3.813 3.813 0 0 1 3.65 6.613l-6.064 4.545v2.864a3.813 3.813 0 0 0 7.627 0v-10.475a3.813 3.813 0 0 0-3.813-3.813" transform="translate(-24.459 -275.322)" style="fill:#111"/>
        <path data-name="패스 49" d="M48.9 285.2a3.787 3.787 0 0 0-6.829 2.273v7.611l6.065-4.545a3.814 3.814 0 0 0 .764-5.339" transform="translate(-24.459 -275.338)" style="fill:#444"/>
        <path data-name="패스 50" d="M11.673 269.492a3.794 3.794 0 1 1-3.794-3.792 3.794 3.794 0 0 1 3.794 3.794" transform="translate(-4.086 -265.698)" style="fill:#111"/>
        <path data-name="패스 51" d="M50.76 269.492a3.794 3.794 0 1 1-3.794-3.794 3.794 3.794 0 0 1 3.794 3.794" transform="translate(-25.051 -265.698)" style="fill:#111"/>
        <path data-name="패스 52" d="M79.46 281.076c3.437 0 5.979 2.735 5.979 6.511 0 3.558-2.3 6.269-5.664 6.269h-9.391v-3.824h8.3c1.646 0 3-.775 3-2.445a2.475 2.475 0 0 0-2.711-2.493h-2.442c-4.115 0-6.8-1.743-6.8-6.027a5.524 5.524 0 0 1 5.373-5.809h8.52v4.018h-6.947c-1.574 0-2.832.266-2.832 1.985a1.78 1.78 0 0 0 1.912 1.815z" transform="translate(-39.296 -269.753)" style="fill:#111"/>
        <path data-name="패스 53" d="M112.939 290.371H123.2v3.486h-14.158v-20.6H123.2v3.485h-10.261v5.083H123.2v3.437h-10.261z" transform="translate(-60.381 -269.753)" style="fill:#111"/>
        <path data-name="패스 54" d="M150.109 290.371h10.262v3.486h-14.158v-20.6h14.159v3.485h-10.263v5.083h10.262v3.437h-10.262z" transform="translate(-80.319 -269.753)" style="fill:#111"/>
        <path data-name="패스 55" d="M202.73 288.172h.255c1.436-4.938 2.935-9.924 4.37-14.861h5.709v20.574h-3.923V280.5h-.255c-1.212 4.454-2.68 8.956-3.923 13.385l-4.37.024-3.7-13.361h-.255v13.337h-3.955v-20.574h5.709z" transform="translate(-105.244 -269.781)" style="fill:#111"/>
        <path data-name="패스 56" d="M246.352 290.371h10.262v3.486h-14.159v-20.6h14.159v3.485h-10.262v5.083h10.262v3.437h-10.262z" transform="translate(-131.94 -269.753)" style="fill:#111"/>
    </g>
</svg>
