<svg xmlns="http://www.w3.org/2000/svg" width="103.68" height="22" viewBox="0 0 103.68 22">
    <path data-name="패스 1" d="M15.418 95.229a3.172 3.172 0 0 1 .636-4.44l1.866-1.4-5.244-3.93a3.179 3.179 0 0 0-.768-.424 3.171 3.171 0 0 1 2.008 2.95v6.329l2.1 1.577a3.172 3.172 0 0 0 3.9-.074l-.061.046a3.171 3.171 0 0 1-4.44-.636" transform="translate(-7.317 -77.87)" style="fill:#299144"/>
    <path data-name="패스 2" d="M1.328 85.745A3.172 3.172 0 0 1 5 84.685a3.172 3.172 0 0 0-4.336 2.95v8.71a3.171 3.171 0 1 0 6.343 0v-2.381l-5.043-3.78a3.172 3.172 0 0 1-.636-4.44" transform="translate(-.408 -77.517)" style="fill:#14602a"/>
    <path data-name="패스 3" d="M5.046 84.7a3.171 3.171 0 0 0-3.036 5.5l5.043 3.78v-6.326A3.172 3.172 0 0 0 5.046 84.7" transform="translate(-.455 -77.537)" style="fill:#379b51"/>
    <path data-name="패스 4" d="M33.548 84.965a3.18 3.18 0 0 0-.768.424l-5.28 3.958 1.9 1.427a3.173 3.173 0 0 1 .1 5l2.043-1.531v-6.328a3.171 3.171 0 0 1 2.008-2.95" transform="translate(-16.897 -77.825)" style="fill:#299144"/>
    <path data-name="패스 5" d="M25.042 102.2a3.172 3.172 0 0 0-.636-4.44l-1.9-1.427-1.866 1.4a3.171 3.171 0 1 0 3.8 5.075l.061-.045a3.161 3.161 0 0 0 .541-.562" transform="translate(-11.9 -84.808)" style="fill:#14602a"/>
    <path data-name="패스 6" d="M41.154 84.391a3.16 3.16 0 0 0-1.164.221 3.171 3.171 0 0 1 3.035 5.5l-5.043 3.78v2.382a3.171 3.171 0 0 0 6.342 0v-8.712a3.171 3.171 0 0 0-3.171-3.171" transform="translate(-23.338 -77.473)" style="fill:#14602a"/>
    <path data-name="패스 7" d="M43.661 85.691a3.149 3.149 0 0 0-5.679 1.89v6.329l5.043-3.78a3.172 3.172 0 0 0 .636-4.44" transform="translate(-23.338 -77.492)" style="fill:#379b51"/>
    <path data-name="패스 8" d="M6.31 69.6a3.155 3.155 0 1 1-3.155-3.155A3.155 3.155 0 0 1 6.31 69.6" transform="translate(0 -66.447)" style="fill:#14602a"/>
    <path data-name="패스 9" d="M45.4 69.6a3.155 3.155 0 1 1-3.155-3.155A3.155 3.155 0 0 1 45.4 69.6" transform="translate(-24.017 -66.447)" style="fill:#14602a"/>
    <path data-name="패스 10" d="M33.401 9.417c2.858 0 4.972 2.274 4.972 5.414 0 2.959-1.912 5.213-4.71 5.213h-7.81v-3.18h6.9c1.369 0 2.5-.644 2.5-2.033a2.058 2.058 0 0 0-2.254-2.073h-2.034c-3.422 0-5.656-1.449-5.656-5.012a4.594 4.594 0 0 1 4.469-4.831h7.087v3.342h-5.779c-1.309 0-2.355.221-2.355 1.651a1.481 1.481 0 0 0 1.59 1.509z"/>
    <path data-name="패스 11" d="M43.711 17.146h8.534v2.9H40.467V2.915h11.774v2.9h-8.53v4.227h8.534V12.9h-8.534z"/>
    <path data-name="패스 12" d="M58.038 17.146h8.533v2.9H54.797V2.915h11.774v2.9h-8.534v4.227h8.534V12.9h-8.534z"/>
    <path data-name="패스 13" d="M81.069 15.294h.212c1.194-4.106 2.441-8.252 3.634-12.359h4.748v17.109h-3.262V8.913h-.212c-1.008 3.7-2.229 7.447-3.263 11.131l-3.634.02-3.074-11.111h-.212v11.091h-3.288V2.935h4.748z"/>
    <path data-name="패스 14" d="M95.146 17.146h8.534v2.9H91.905V2.915h11.775v2.9h-8.534v4.227h8.534V12.9h-8.534z"/>
</svg>
