<svg xmlns="http://www.w3.org/2000/svg" width="67" height="67.08" viewBox="0 0 67 67.08">
    <g data-name="그룹 9510">
        <g data-name="타원 275" transform="translate(52)" style="stroke:#07784e;stroke-width:4px;fill:none">
            <ellipse cx="7.5" cy="8" rx="7.5" ry="8" style="stroke:none"/>
            <ellipse cx="7.5" cy="8" rx="5.5" ry="6" style="fill:none"/>
        </g>
        <path data-name="패스 5673" d="M-16619.949 10209.1s3.105-3.806 4.309-5.108a1.908 1.908 0 0 0 0-2.6 34.088 34.088 0 0 0-4.309-3.506 1.959 1.959 0 0 0-2.2.5l-10.414 9.515a3.191 3.191 0 0 1-4.916 0 3.4 3.4 0 0 1 0-5l14.129-14.128s2.9-2.1 5.607 0 15.324 12.62 15.324 12.62a5.881 5.881 0 0 1 .8 6.51c-1.8 3.806-6.309 8.213-6.309 8.213" transform="translate(16656.503 -10183.659)" style="stroke:#07784e;stroke-width:4px;fill:none"/>
        <path data-name="패스 5674" d="M-16636 10308.118s5.309-10.816 17.828-10.216 18.027 12.62 17.727 19.731-4.707 18.427-19.328 19.028" transform="translate(16654.425 -10271.662)" style="stroke-linecap:round;stroke:#07784e;stroke-width:4px;fill:none"/>
        <path data-name="패스 5675" d="M-16622.5 10463s4.607 5.708 13.822 5.708" transform="translate(16643.629 -10403.708)" style="stroke-linecap:round;stroke:#07784e;stroke-width:4px;fill:none"/>
        <path data-name="패스 5676" d="M-16688 10352.5h16.426" transform="translate(16696.81 -10297.716)" style="stroke-linecap:round;stroke:#07784e;stroke-width:4px;fill:none"/>
        <path data-name="패스 5678" d="M-16688 10352.5h17.627" transform="translate(16695.61 -10315.543)" style="stroke-linecap:round;stroke:#07784e;stroke-width:4px;fill:none"/>
        <path data-name="패스 5677" d="M-16688 10352.5h30.047" transform="translate(16690 -10306.892)" style="stroke-linecap:round;stroke:#07784e;stroke-width:4px;fill:none"/>
        <path data-name="패스 5679" d="M-16484.893 10354c1.527.727 7.512 4.207 7.512 4.207s2.5 1.3.7 5.709-5.51 13.22-5.51 13.22-2.5 4.006-6.811 0" transform="translate(16536.871 -10316.541)" style="stroke:#07784e;stroke-width:4px;fill:none"/>
        <path data-name="패스 5680" d="M-16649.678 10378.3c0-2.4-.1-2.5 0-3.8" transform="translate(16665.399 -10332.936)" style="stroke-linecap:round;stroke:#07784e;stroke-width:4px;fill:none"/>
        <path data-name="패스 5681" d="M-16648.506 10418.5a4.747 4.747 0 0 0 2.953 4.406" transform="translate(16664.628 -10368.122)" style="stroke-linecap:round;stroke:#07784e;stroke-width:4px;fill:none"/>
    </g>
</svg>
