<svg xmlns="http://www.w3.org/2000/svg" width="176.119" height="47.807" viewBox="0 0 176.119 47.807">
    <defs>
        <clipPath id="rut1ojj8la">
            <path data-name="사각형 1127" style="fill:none" d="M0 0h176.119v47.807H0z"/>
        </clipPath>
    </defs>
    <g data-name="그룹 9258" style="clip-path:url(#rut1ojj8la)">
        <path data-name="패스 5136" d="M16.965 101.6a16.153 16.153 0 0 1-6.654-1.374C8.244 99.318 5.2 97.7 4.284 95.495a3.385 3.385 0 0 1 2.1-4.445 3.454 3.454 0 0 1 2.026 0 3.207 3.207 0 0 1 .743.354q.338.219 1.182.9a10.379 10.379 0 0 0 15.735-2.87q.169-.372.338-.692a3.96 3.96 0 0 0 .2-.422 2.546 2.546 0 0 0 .068-.27l-11.717-.034q-4.93 0-8.408-.017a15.032 15.032 0 0 1-4.042-.135 3.443 3.443 0 0 1-1.967-1.441c-.983-1.594-.42-4.244.065-5.942l.068-.238a17.353 17.353 0 0 1 8.267-10.591 17.134 17.134 0 0 1 11.29-1.628 17.6 17.6 0 0 1 5.559 2.068c1.488.868 3.623 2.177 4.143 3.921a3.446 3.446 0 0 1-1.746 4c-1.674.814-3.148-.047-4.451-1.082-.27-.247-.524-.461-.762-.644-4.516-3.432-10.753-1.854-14.163 2.3q-.17.237-.321.472t-.456.777q-.676 1.284-.574 1.351 0 .034 11.92.067h11.954l.338.135c4.067 1.575 2.239 7.175.936 10.049a17.552 17.552 0 0 1-10.528 9.3 16.739 16.739 0 0 1-5.116.861" transform="translate(0 -53.793)" style="fill:#07784e"/>
        <path data-name="패스 5137" d="M186.443 117.3h17.264v-.011a2.7 2.7 0 0 0 0-5.4h-17.946l-.482-.053a5.537 5.537 0 0 1 .366-.814c.037-.067.075-.135.116-.2l.014-.03a8.781 8.781 0 0 1 7.783-4.275h10.148v-.017a2.7 2.7 0 0 0 0-5.4v-.019h-8.348a19.382 19.382 0 0 0-4.586.187 18.44 18.44 0 0 0-.45.074.95.95 0 0 0-.163.031 11.328 11.328 0 0 0-2.634.762c-7.448 2.851-8.089 10.336-8.134 12.132s-.531 7.06 5.246 11.125a13.883 13.883 0 0 0 5.508 2.392c.029.007.067.015.118.023a16.614 16.614 0 0 0 2.246.279h11.2v-.019a2.725 2.725 0 0 0 .309-.019h.154l.268-.08h.013a2.681 2.681 0 0 0 .715-.324l.035-.019a2.323 2.323 0 0 0 .517-.453 2.695 2.695 0 0 0-2.01-4.494v-.019h-11.178a8.922 8.922 0 0 1-7.253-5.362h1.164z" transform="translate(-142.519 -80.285)" style="fill:#05080f"/>
        <path data-name="패스 5138" d="M335.727 117.3h17.264v-.011a2.7 2.7 0 0 0 0-5.4h-17.946l-.482-.053a5.545 5.545 0 0 1 .366-.814c.037-.067.075-.135.116-.2l.014-.03a8.781 8.781 0 0 1 7.783-4.275h10.148v-.017a2.7 2.7 0 0 0 0-5.4v-.019h-8.348a19.38 19.38 0 0 0-4.586.187 18.44 18.44 0 0 0-.45.074.95.95 0 0 0-.163.031 11.328 11.328 0 0 0-2.634.762c-7.448 2.851-8.089 10.336-8.134 12.132s-.531 7.06 5.246 11.125a13.884 13.884 0 0 0 5.508 2.392c.029.007.067.015.118.023a16.617 16.617 0 0 0 2.246.279h11.2v-.019a2.724 2.724 0 0 0 .309-.019h.154l.267-.08h.013a2.684 2.684 0 0 0 .715-.324l.035-.019a2.321 2.321 0 0 0 .516-.453 2.695 2.695 0 0 0-2.01-4.494v-.019h-11.176a8.922 8.922 0 0 1-7.253-5.362h1.164z" transform="translate(-261.127 -80.285)" style="fill:#05080f"/>
        <path data-name="패스 5139" d="M732.632 117.3H749.9v-.011a2.7 2.7 0 0 0 0-5.4h-17.95l-.481-.053a5.545 5.545 0 0 1 .366-.814c.037-.067.074-.135.116-.2l.015-.03a8.781 8.781 0 0 1 7.783-4.275H749.9v-.017a2.7 2.7 0 1 0 0-5.4v-.019h-8.348a19.38 19.38 0 0 0-4.586.187 18.44 18.44 0 0 0-.45.074.946.946 0 0 0-.163.031 11.329 11.329 0 0 0-2.634.762c-7.448 2.851-8.089 10.336-8.134 12.132s-.531 7.06 5.246 11.125a13.884 13.884 0 0 0 5.509 2.392c.029.007.067.015.118.023a16.614 16.614 0 0 0 2.245.279h11.2v-.019a2.72 2.72 0 0 0 .308-.019h.154l.268-.08h.012a2.682 2.682 0 0 0 .715-.324l.035-.019a2.318 2.318 0 0 0 .516-.453 2.695 2.695 0 0 0-2.01-4.494v-.019h-11.18a8.922 8.922 0 0 1-7.253-5.362h1.164z" transform="translate(-576.475 -80.285)" style="fill:#05080f"/>
        <path data-name="패스 5140" d="M67.381 5.5a5.5 5.5 0 1 1-5.5-5.5 5.5 5.5 0 0 1 5.5 5.5" transform="translate(-44.8)" style="fill:#07784e"/>
        <path data-name="패스 5141" d="M571.621 86.989a25.086 25.086 0 0 0-.089-.546 1.166 1.166 0 0 0-.037-.2 13.746 13.746 0 0 0-.924-3.193c-3.456-9.028-12.529-9.805-14.707-9.86s-.31-.023-.845-.013h-13.2a2.712 2.712 0 0 0-2.712 2.712v26.78h.023a3.289 3.289 0 0 0 .023.374v.187l.1.324c0 .005 0 .01.006.015a3.247 3.247 0 0 0 .393.867l.023.043a2.8 2.8 0 0 0 .55.626 3.267 3.267 0 0 0 5.448-2.436h.023v-8.153l-.033-11.984-.006-2.2h6.539v22.338h.013a3.271 3.271 0 0 0 6.542 0V80.914l.064-.584a6.691 6.691 0 0 1 .986.443c.082.045.163.091.247.14l.036.018c1.836 1.063 5.028 3.73 5.182 9.435v12.3h.023a3.271 3.271 0 0 0 6.542 0h.023V92.549a23.518 23.518 0 0 0-.227-5.56" transform="translate(-428.328 -58.14)" style="fill:#05080f"/>
        <path data-name="패스 5142" d="m616.623 72.74-.09.09h.139z" transform="translate(-489.846 -57.793)" style="fill:#05080f"/>
    </g>
</svg>
