<svg xmlns="http://www.w3.org/2000/svg" width="53" height="53" viewBox="0 0 53 53">
    <defs>
        <filter id="kuxxtgf03a" x="0" y="0" width="53" height="53" filterUnits="userSpaceOnUse">
            <feOffset dy="3"/>
            <feGaussianBlur stdDeviation="3" result="blur"/>
            <feFlood flood-opacity=".059"/>
            <feComposite operator="in" in2="blur"/>
            <feComposite in="SourceGraphic"/>
        </filter>
    </defs>
    <g style="filter:url(#kuxxtgf03a)">
        <circle data-name="타원 100" cx="17.5" cy="17.5" r="17.5" transform="translate(9 6)" style="fill:#fff"/>
    </g>
    <path data-name="합치기 1" d="M-86.482 39.281c-.354.055-.51-.23-.707-.426q-3.129-3.118-6.246-6.246a4.738 4.738 0 0 1-1.2-5.352 4.857 4.857 0 0 1 4.371-3.239 4.833 4.833 0 0 1 3.2.91c.193.131.339.337.595.366a5.272 5.272 0 0 1 4.87-1.077 5.022 5.022 0 0 1 2.544 7.895 30.676 30.676 0 0 1-2.513 2.61c-1.345 1.368-2.707 2.72-4.067 4.073-.213.211-.394.5-.734.5a.672.672 0 0 1-.113-.014z" transform="translate(113 -8.044)" style="fill:#07784e;stroke:transparent;stroke-miterlimit:10"/>
</svg>
