<svg xmlns="http://www.w3.org/2000/svg" width="89.596" height="24.32" viewBox="0 0 89.596 24.32">
    <defs>
        <clipPath id="1kbzgksxna">
            <path data-name="사각형 1127" style="fill:#959595" d="M0 0h89.596v24.321H0z"/>
        </clipPath>
    </defs>
    <g data-name="그룹 9258" style="clip-path:url(#1kbzgksxna)">
        <path data-name="패스 5136" d="M8.631 84.948a8.218 8.218 0 0 1-3.385-.7c-1.052-.462-2.6-1.285-3.067-2.406a1.722 1.722 0 0 1 1.067-2.261 1.757 1.757 0 0 1 1.031 0 1.631 1.631 0 0 1 .378.18q.172.111.6.455a5.28 5.28 0 0 0 8-1.46q.086-.189.172-.352a2.015 2.015 0 0 0 .1-.215 1.3 1.3 0 0 0 .034-.137L7.6 78.035q-2.508 0-4.278-.009a7.648 7.648 0 0 1-2.056-.069 1.751 1.751 0 0 1-1-.731c-.5-.811-.214-2.159.033-3.023l.035-.121A8.828 8.828 0 0 1 4.549 68.7a8.716 8.716 0 0 1 5.743-.828 8.953 8.953 0 0 1 2.828 1.048c.757.442 1.843 1.108 2.107 1.995a1.753 1.753 0 0 1-.888 2.037 2.067 2.067 0 0 1-2.264-.551 5.245 5.245 0 0 0-.388-.327 5.286 5.286 0 0 0-7.2 1.169q-.086.12-.163.24t-.232.4q-.344.653-.292.687 0 .017 6.064.034h6.081l.172.069c2.069.8 1.139 3.65.476 5.112a8.929 8.929 0 0 1-5.356 4.73 8.516 8.516 0 0 1-2.6.438" transform="translate(0 -60.628)" style="fill:#959595"/>
        <path data-name="패스 5137" d="M182.972 109.314h8.782v-.006a1.373 1.373 0 0 0 0-2.745h-9.13l-.245-.027a2.817 2.817 0 0 1 .186-.414c.019-.034.038-.069.059-.1l.007-.015a4.467 4.467 0 0 1 3.96-2.175h5.163v-.01a1.373 1.373 0 0 0 0-2.745v-.01h-4.247a9.86 9.86 0 0 0-2.333.1 9.223 9.223 0 0 0-.229.037.484.484 0 0 0-.083.016 5.763 5.763 0 0 0-1.34.388 6.675 6.675 0 0 0-4.138 6.172 6.753 6.753 0 0 0 2.669 5.66 7.063 7.063 0 0 0 2.8 1.217l.06.012a8.451 8.451 0 0 0 1.142.142h5.7v-.01a1.388 1.388 0 0 0 .157-.01h.079l.136-.041h.006a1.364 1.364 0 0 0 .364-.165l.018-.01a1.182 1.182 0 0 0 .263-.231 1.371 1.371 0 0 0-1.022-2.286v-.01h-5.686a4.539 4.539 0 0 1-3.69-2.728h.592z" transform="translate(-160.627 -90.486)" style="fill:#959595"/>
        <path data-name="패스 5138" d="M332.256 109.314h8.782v-.006a1.373 1.373 0 0 0 0-2.745h-9.129l-.245-.027a2.822 2.822 0 0 1 .186-.414c.019-.034.038-.069.059-.1l.007-.015a4.467 4.467 0 0 1 3.96-2.175h5.163v-.01a1.373 1.373 0 0 0 0-2.745v-.01h-4.247a9.859 9.859 0 0 0-2.333.1 9.223 9.223 0 0 0-.229.037.483.483 0 0 0-.083.016 5.763 5.763 0 0 0-1.34.388 6.675 6.675 0 0 0-4.138 6.172 6.753 6.753 0 0 0 2.669 5.66 7.063 7.063 0 0 0 2.8 1.217l.06.012a8.452 8.452 0 0 0 1.142.142h5.7v-.01a1.388 1.388 0 0 0 .157-.01h.079l.136-.041h.006a1.366 1.366 0 0 0 .364-.165l.018-.01a1.181 1.181 0 0 0 .263-.231 1.371 1.371 0 0 0-1.022-2.286v-.01h-5.685a4.539 4.539 0 0 1-3.69-2.728h.592z" transform="translate(-294.305 -90.486)" style="fill:#959595"/>
        <path data-name="패스 5139" d="M729.161 109.314h8.782v-.006a1.373 1.373 0 0 0 0-2.745h-9.13l-.245-.027a2.822 2.822 0 0 1 .186-.414c.019-.034.038-.069.059-.1l.007-.015a4.467 4.467 0 0 1 3.959-2.175h5.163v-.01a1.373 1.373 0 1 0 0-2.745v-.01H733.7a9.858 9.858 0 0 0-2.333.1 9.223 9.223 0 0 0-.229.037.483.483 0 0 0-.083.016 5.763 5.763 0 0 0-1.34.388 6.675 6.675 0 0 0-4.138 6.172 6.753 6.753 0 0 0 2.669 5.66 7.063 7.063 0 0 0 2.8 1.217l.06.012a8.451 8.451 0 0 0 1.142.142h5.7v-.01a1.387 1.387 0 0 0 .157-.01h.078l.136-.041h.006a1.365 1.365 0 0 0 .364-.165l.018-.01a1.18 1.18 0 0 0 .263-.231 1.371 1.371 0 0 0-1.022-2.286v-.01h-5.685a4.539 4.539 0 0 1-3.69-2.728h.592z" transform="translate(-649.72 -90.486)" style="fill:#959595"/>
        <path data-name="패스 5140" d="M61.98 2.8a2.8 2.8 0 1 1-2.8-2.8 2.8 2.8 0 0 1 2.8 2.8" transform="translate(-50.493)" style="fill:#959595"/>
        <path data-name="패스 5141" d="M555.647 80.2c-.015-.1-.03-.189-.045-.278a.6.6 0 0 0-.019-.1 6.992 6.992 0 0 0-.47-1.624c-1.758-4.593-6.374-4.988-7.482-5.016s-.158-.012-.43-.006h-6.713a1.38 1.38 0 0 0-1.38 1.38v13.623h.012a1.673 1.673 0 0 0 .012.19v.1l.05.165v.008a1.653 1.653 0 0 0 .2.441c0 .007.007.015.012.022a1.427 1.427 0 0 0 .28.319 1.662 1.662 0 0 0 2.771-1.239h.012v-4.153l-.017-6.1v-1.12h3.327v11.367h.007a1.664 1.664 0 0 0 3.328 0V77.109l.033-.3a3.4 3.4 0 0 1 .5.226l.125.071.018.009a5.415 5.415 0 0 1 2.636 4.8v6.258h.012a1.664 1.664 0 0 0 3.328 0h.012v-5.142a11.961 11.961 0 0 0-.115-2.828" transform="translate(-482.75 -65.527)" style="fill:#959595"/>
        <path data-name="패스 5142" d="m616.579 72.74-.046.046h.071z" transform="translate(-552.085 -65.136)" style="fill:#959595"/>
    </g>
</svg>
