<svg xmlns="http://www.w3.org/2000/svg" width="27.392" height="25.375" viewBox="0 0 27.392 25.375">
    <path data-name="패스 5113" d="M983.862 3744.043h-1.769v-1.769a.55.55 0 1 0-1.1 0v1.769h-1.77a.55.55 0 1 0 0 1.1h1.77v1.771a.55.55 0 0 0 1.1 0v-1.771h1.769a.55.55 0 1 0 0-1.1z" transform="translate(-961.703 -3726.77)" style="fill:#959595"/>
    <path data-name="패스 5114" d="M812.971 3588.231c0-.01.006-.02.006-.03V3577a.549.549 0 0 0-.55-.55h-12.35l-3.6-4.552a.551.551 0 0 0-.431-.208h-9.8a.55.55 0 0 0-.55.55v21.989a.55.55 0 0 0 .55.55h13.887a7.53 7.53 0 0 0 12.839-6.542zm-26.176 5.443v-20.89h8.981l3.6 4.552a.55.55 0 0 0 .431.208h12.067v7.877a7.546 7.546 0 1 0-12.635 8.252zm18.741 2.287a6.453 6.453 0 1 1 6.452-6.454 6.46 6.46 0 0 1-6.452 6.454z" transform="translate(-785.696 -3571.685)" style="fill:#959595"/>
</svg>
