<svg xmlns="http://www.w3.org/2000/svg" width="40" height="53.201" viewBox="0 0 40 53.201">
    <g data-name="그룹 9367">
        <path data-name="패스 5414" d="M66.732 44.659a1.17 1.17 0 1 0-.185 0z" transform="translate(-56.909 -31.124)" style="fill:#90c7b2"/>
        <path data-name="패스 5416" d="M63.543 55.15h-.852a2.014 2.014 0 0 0-2.011 2.011v.323h4.877v-.323a2.014 2.014 0 0 0-2.014-2.011" transform="translate(-53.387 -40.556)" style="fill:#90c7b2"/>
        <path data-name="패스 5417" d="M68.419 42.359a1.153 1.153 0 0 0-.529.132 1.156 1.156 0 0 1 0 2.067 1.178 1.178 0 0 0 .439.127h.185a1.164 1.164 0 0 0-.1-2.326z" transform="translate(-58.689 -31.151)" style="fill:#90c7b2"/>
        <path data-name="패스 5419" d="M68.845 55.15h-.955a2.014 2.014 0 0 1 1.91 2.006v.328h1.058v-.323a2.014 2.014 0 0 0-2.011-2.011" transform="translate(-58.689 -40.556)" style="fill:#90c7b2"/>
        <path data-name="패스 5420" d="M167.17 7.3v2.588h2.588z" transform="translate(-131.698 -5.368)" style="fill:#effafe"/>
        <path data-name="패스 5421" d="m47.385 55.67 22.554-.394 1.552.309c0-2.777-2.427-.309.349-.309.292 0 1.188.017 1.188.309l2.467-.309h1.762a1.67 1.67 0 0 0 1.667-1.67V8.865c-.292 0-.1-5.315-.1-5.608l-4.265.074L44.287 4.47a1.67 1.67 0 0 0-1.667 1.67l.8 45.993c0 .921 3.043 3.663 3.964 3.665" transform="rotate(-179 40.703 28.248)" style="fill:#b9ffe5"/>
        <path data-name="패스 5422" d="M170.147 21.08v44.741a1.67 1.67 0 0 1-1.667 1.67h1.32a1.67 1.67 0 0 0 1.667-1.67V21.08z" transform="translate(-132.661 -15.502)" style="fill:#90c7b2"/>
        <path data-name="패스 5423" d="M35.978 53.18h34.284a2.863 2.863 0 0 0 2.858-2.86V5.049a.7.7 0 0 0-.193-.468l-4.4-4.4h-.013A.678.678 0 0 0 68.063 0H35.978a2.863 2.863 0 0 0-2.858 2.861V50.32a2.863 2.863 0 0 0 2.858 2.861m20.835 0h6.669c.366-.001-2.124-.044-6.669-.001zm11.919-50.94 2.117 2.146h-2.117zm-34.289.611a1.537 1.537 0 0 1 1.535-1.537h31.431v3.734a.661.661 0 0 0 .662.662H71.8V50.32a1.537 1.537 0 0 1-1.535 1.537H35.978a1.537 1.537 0 0 1-1.535-1.537z" transform="translate(-33.12)" style="fill:#07784e"/>
        <path data-name="패스 5424" d="M102.719 30.173h16.851a.663.663 0 1 0 0-1.323h-16.851a.663.663 0 1 0 0 1.323" transform="translate(-84.756 -21.216)" style="fill:#07784e"/>
        <path data-name="패스 5425" d="M99.022 47.483h16.935a.662.662 0 0 0 0-1.323H99.022a.662.662 0 1 0 0 1.323" transform="translate(-81.096 -33.945)" style="fill:#07784e"/>
        <path data-name="패스 5426" d="M99.022 64.793h16.935a.662.662 0 0 0 0-1.323H99.022a.662.662 0 0 0 0 1.323" transform="translate(-81.096 -46.675)" style="fill:#07784e"/>
        <path data-name="패스 5427" d="M50.742 82.113h29.7a.662.662 0 1 0 0-1.323h-29.7a.662.662 0 1 0 0 1.323" transform="translate(-45.592 -59.411)" style="fill:#07784e"/>
        <path data-name="패스 5428" d="M50.742 99.423h29.7a.662.662 0 1 0 0-1.323h-29.7a.662.662 0 1 0 0 1.323" transform="translate(-45.592 -72.141)" style="fill:#07784e"/>
        <path data-name="패스 5429" d="M50.742 116.743h29.7a.662.662 0 1 0 0-1.323h-29.7a.662.662 0 1 0 0 1.323" transform="translate(-45.592 -84.878)" style="fill:#07784e"/>
        <path data-name="패스 5430" d="M50.742 134.053h29.7a.662.662 0 1 0 0-1.323h-29.7a.662.662 0 0 0 0 1.323" transform="translate(-45.592 -97.607)" style="fill:#07784e"/>
        <path data-name="패스 5431" d="M50.742 151.363h29.7a.662.662 0 0 0 0-1.323h-29.7a.662.662 0 0 0 0 1.323" transform="translate(-45.592 -110.336)" style="fill:#07784e"/>
        <path data-name="패스 5432" d="M50.742 168.683H69a.662.662 0 0 0 0-1.323H50.742a.662.662 0 0 0 0 1.323" transform="translate(-45.592 -123.073)" style="fill:#07784e"/>
        <path data-name="패스 5433" d="M50.742 39.334h9.164a.661.661 0 0 0 .662-.662v-9.16a.661.661 0 0 0-.662-.662h-9.164a.661.661 0 0 0-.662.662v9.161a.661.661 0 0 0 .662.662m6.88-1.323h-4.6v-.191a1.882 1.882 0 0 1 1.878-1.879h.852a1.882 1.882 0 0 1 1.879 1.879zm-3.334-4.419a1.035 1.035 0 1 1 1.122 1.027h-.175a1.035 1.035 0 0 1-.947-1.027m-2.888-3.42h7.838v7.838h-.288v-.191a3.2 3.2 0 0 0-1.728-2.839 2.358 2.358 0 1 0-3.8 0 3.2 3.2 0 0 0-1.728 2.839v.191H51.4z" transform="translate(-45.592 -21.216)" style="fill:#07784e"/>
    </g>
</svg>
