<svg xmlns="http://www.w3.org/2000/svg" width="54.476" height="57.719" viewBox="0 0 54.476 57.719">
    <g data-name="그룹 9316">
        <path data-name="패스 5227" d="M83.022 189.76h-3.051a8.6 8.6 0 0 0-8.622 8.584v2.6H91.63v-2.572a8.605 8.605 0 0 0-8.589-8.622h-.034z" transform="translate(-54.261 -144.306)" style="fill:#efeff4"/>
        <path data-name="패스 5228" d="M95.637 63.665a8.622 8.622 0 0 0-8.622-8.622h-3.044a8.622 8.622 0 0 0-8.622 8.622v2.575H95.63z" transform="translate(-57.303 -41.86)" style="fill:#efeff4"/>
        <path data-name="패스 5229" d="M99.388 15.624h1.174a5.6 5.6 0 1 0-1.174 0" transform="translate(-71.774 -3.392)" style="fill:#efeff4"/>
        <path data-name="패스 5230" d="M96.525 150.331a5.6 5.6 0 1 0-1.159 0z" transform="translate(-68.709 -105.835)" style="fill:#efeff4"/>
        <path data-name="패스 5231" d="M187.955 115.883h-1.916l7.7 24.051h1.916z" transform="translate(-141.482 -88.128)" style="fill:#fd0"/>
        <path data-name="패스 5232" d="M124.736 196.707a8.622 8.622 0 0 0-8.45-6.924h-1.2a8.605 8.605 0 0 1 8.622 8.589v2.6h1.2V198.4a8.661 8.661 0 0 0-.172-1.691" transform="translate(-87.525 -144.329)" style="fill:#cfcfcf"/>
        <path data-name="패스 5233" d="M118.005 55.073h-1.916a8.622 8.622 0 0 1 8.622 8.622v2.567h1.916v-2.574a8.622 8.622 0 0 0-8.622-8.615" transform="translate(-88.285 -41.882)" style="fill:#cfcfcf"/>
        <path data-name="패스 5234" d="M114.677 4.493a5.61 5.61 0 0 0-.958.084 5.59 5.59 0 0 1 0 11.017c.125.022.24.043.374.057h1.174a5.595 5.595 0 0 0-.589-11.159" transform="translate(-86.483 -3.417)" style="fill:#cfcfcf"/>
        <path data-name="패스 5235" d="M111.818 139.193a5.615 5.615 0 0 0-.6.034 5.592 5.592 0 0 1 0 11.123h1.182a5.595 5.595 0 0 0-.582-11.156" transform="translate(-84.582 -105.855)" style="fill:#cfcfcf"/>
        <path data-name="패스 5236" d="M50.758 25.458h29.248a.6.6 0 0 0 0-1.2H76.6v-2.452a9.71 9.71 0 0 0-7.683-9.472 6.673 6.673 0 1 0-7.07 0 9.71 9.71 0 0 0-7.683 9.472v2.454h-3.406a.6.6 0 0 0 0 1.2m9.149-18.789a5.475 5.475 0 1 1 6.055 5.444H64.8a5.482 5.482 0 0 1-4.893-5.444m-4.551 15.137a8.5 8.5 0 0 1 8.5-8.5H66.9a8.5 8.5 0 0 1 8.5 8.5v2.452H55.361z" transform="translate(-38.146)" style="fill:#07784e"/>
        <path data-name="패스 5237" d="m54.444 136.8-8.009-25a.6.6 0 0 0-.57-.417H8.607a.6.6 0 0 0-.57.417l-8.009 25a.6.6 0 0 0 .57.781h15.494a9.808 9.808 0 0 0-.074 1.186v3.063a.6.6 0 0 0 .6.6h21.238a.6.6 0 0 0 .6-.6v-3.051a9.808 9.808 0 0 0-.074-1.186h15.492a.6.6 0 0 0 .57-.793m-17.187 4.431H17.215v-2.453a8.483 8.483 0 0 1 8.471-8.5h3.075a8.483 8.483 0 0 1 8.5 8.471v2.477zm-15.5-17.589a5.475 5.475 0 1 1 6.047 5.444h-1.143a5.482 5.482 0 0 1-4.9-5.444m16.4 12.754a9.729 9.729 0 0 0-7.389-7.1 6.673 6.673 0 1 0-7.068 0 9.729 9.729 0 0 0-7.389 7.1H1.42l7.614-23.812h36.4l7.626 23.812z" transform="translate(0 -84.706)" style="fill:#07784e"/>
    </g>
</svg>
