<svg xmlns="http://www.w3.org/2000/svg" width="52.888" height="58.195" viewBox="0 0 52.888 58.195">
    <g data-name="그룹 9368">
        <path data-name="패스 5243" d="M74.14 179.521v2.415h19.248v-2.415a8.181 8.181 0 0 0-8.174-8.171h-2.9a8.181 8.181 0 0 0-8.176 8.171" transform="translate(-57.319 -129.972)" style="fill:#efeff4"/>
        <path data-name="패스 5244" d="M53.842 102.31a1.932 1.932 0 0 0-1.932 1.932v28.54a1.932 1.932 0 0 0 1.932 1.932h27.33a1.932 1.932 0 0 0 1.932-1.932v-28.54a1.932 1.932 0 0 0-1.932-1.932zm9.678 15.7a6.264 6.264 0 1 1 6.761 0l-.241.157.283.063a9.2 9.2 0 0 1 7.167 8.922v2.9a.483.483 0 0 1-.483.483H56.8a.483.483 0 0 1-.483-.483v-2.9a9.2 9.2 0 0 1 7.167-8.922l.283-.063z" transform="translate(-40.457 -77.604)" style="fill:#ff0"/>
        <path data-name="패스 5245" d="M169.3 102.31h-1.21a1.932 1.932 0 0 1 1.932 1.932v28.54a1.932 1.932 0 0 1-1.932 1.932h1.21a1.932 1.932 0 0 0 1.932-1.932v-28.54a1.932 1.932 0 0 0-1.932-1.932" transform="translate(-128.582 -77.604)" style="fill:#fd0"/>
        <path data-name="패스 5246" d="m29.429 23.129-.543-1.1-.543 1.1a.483.483 0 0 1-.365.263l-1.207.176.879.857a.483.483 0 0 1 .142.427l-.208 1.207 1.087-.57a.483.483 0 0 1 .449 0l1.087.57L30 24.853a.483.483 0 0 1 .138-.427l.879-.857-1.207-.176a.483.483 0 0 1-.379-.263" transform="translate(-21.387 -16.71)" style="fill:#ff0"/>
        <path data-name="패스 5247" d="M97.9 134.141a5.3 5.3 0 1 0-1.106 0z" transform="translate(-70.903 -93.729)" style="fill:#efeff4"/>
        <path data-name="패스 5248" d="M116.207 171.35H115a8.181 8.181 0 0 1 8.171 8.171v2.415h1.207v-2.415a8.181 8.181 0 0 0-8.171-8.171" transform="translate(-88.312 -129.972)" style="fill:#cfcfcf"/>
        <path data-name="패스 5249" d="M112.1 123.6a5.311 5.311 0 0 0-.6.036 5.3 5.3 0 0 1 0 10.521h1.159a5.3 5.3 0 0 0-.559-10.557" transform="translate(-85.657 -93.753)" style="fill:#cfcfcf"/>
        <path data-name="패스 5250" d="m186.065 25.49 1.087.57-.208-1.207a.483.483 0 0 1 .138-.427l.879-.857-1.207-.176a.483.483 0 0 1-.365-.263l-.543-1.1-.543 1.1a.483.483 0 0 1-.365.263l-1.207.176.879.857a.483.483 0 0 1 .138.427l-.208 1.207 1.087-.57a.483.483 0 0 1 .439 0" transform="translate(-140.446 -16.71)" style="fill:#ff0"/>
        <path data-name="패스 5251" d="M57.364 16.786h4.206a1.932 1.932 0 0 0 1.93-1.932V6.432A1.932 1.932 0 0 0 61.57 4.5H15.932A1.932 1.932 0 0 0 14 6.432v8.423a1.932 1.932 0 0 0 1.932 1.932h31.391a.483.483 0 0 1 .483.483v5.824l9.3-6.237a.483.483 0 0 1 .256-.07m-9.417-6.508-1.4 1.362.331 1.932a.483.483 0 0 1-.7.51l-1.727-.908-1.717.9a.483.483 0 0 1-.7-.51l.331-1.932-1.4-1.362a.483.483 0 0 1 .268-.823l1.932-.28.864-1.751a.483.483 0 0 1 .867 0l.864 1.751 1.932.28a.483.483 0 0 1 .263.833zm6.708 3.284.331-1.932-1.384-1.35a.483.483 0 0 1 .268-.823l1.932-.28.864-1.751a.483.483 0 0 1 .867 0l.869 1.75 1.932.28a.483.483 0 0 1 .268.823l-1.4 1.362.331 1.932a.483.483 0 0 1-.7.51l-1.731-.908-1.727.908a.483.483 0 0 1-.708-.519zm-19.34-3.285-1.4 1.362.331 1.932a.483.483 0 0 1-.7.51l-1.727-.908-1.727.908a.483.483 0 0 1-.7-.51l.331-1.932-1.4-1.362a.483.483 0 0 1 .268-.823l1.932-.28.862-1.748a.483.483 0 0 1 .867 0l.864 1.751 1.932.28a.483.483 0 0 1 .278.823zm-12.619 0-1.4 1.362.331 1.932a.483.483 0 0 1-.7.51l-1.725-.906-1.727.908a.483.483 0 0 1-.7-.51l.331-1.932-1.4-1.362a.483.483 0 0 1 .268-.823l1.932-.28.864-1.751a.483.483 0 0 1 .867 0l.865 1.751 1.932.28a.483.483 0 0 1 .261.823" transform="translate(-11.701 -3.413)" style="fill:#b9ffe5"/>
        <path data-name="패스 5252" d="M207.207 4.5H206a1.932 1.932 0 0 1 1.932 1.932v8.423A1.932 1.932 0 0 1 206 16.786h1.207a1.932 1.932 0 0 0 1.932-1.932V6.432a1.932 1.932 0 0 0-1.932-1.932" transform="translate(-157.338 -3.413)" style="fill:#90c7b2"/>
        <path data-name="패스 5253" d="m81.746 23.129-.543-1.1-.541 1.1a.483.483 0 0 1-.365.263l-1.207.176.879.857a.483.483 0 0 1 .138.427L79.9 26.06l1.087-.57a.483.483 0 0 1 .449 0l1.087.57-.208-1.207a.483.483 0 0 1 .138-.427l.879-.857-1.207-.176a.483.483 0 0 1-.377-.263" transform="translate(-61.073 -16.71)" style="fill:#ff0"/>
        <path data-name="패스 5254" d="m134.049 23.129-.543-1.1-.543 1.1a.483.483 0 0 1-.365.263l-1.207.176.872.857a.483.483 0 0 1 .138.427l-.208 1.207 1.087-.57a.483.483 0 0 1 .449 0l1.087.57-.208-1.207a.483.483 0 0 1 .138-.427l.879-.857-1.207-.176a.483.483 0 0 1-.367-.263" transform="translate(-100.744 -16.71)" style="fill:#ff0"/>
        <path data-name="패스 5255" d="M83.8 130.818a6.385 6.385 0 1 0-6.9 0 9.273 9.273 0 0 0-7.261 9.038v2.9a.6.6 0 0 0 .6.6h20.219a.6.6 0 0 0 .6-.6v-2.9a9.273 9.273 0 0 0-7.259-9.038m-8.628-5.373a5.177 5.177 0 1 1 5.723 5.146h-1.088a5.182 5.182 0 0 1-4.631-5.146m14.679 16.708H70.847v-2.3a8.061 8.061 0 0 1 8.056-8.044h2.9a8.06 8.06 0 0 1 8.051 8.051z" transform="translate(-53.906 -90.31)" style="fill:#07784e"/>
        <path data-name="패스 5256" d="M45.428 97.81a3.021 3.021 0 0 0-3.018 3.018v28.54a3.021 3.021 0 0 0 3.018 3.018h28.538a3.021 3.021 0 0 0 3.018-3.018v-28.54a3.021 3.021 0 0 0-3.018-3.018zm30.351 3.018v28.54a1.814 1.814 0 0 1-1.811 1.811h-28.54a1.814 1.814 0 0 1-1.811-1.811v-28.54a1.814 1.814 0 0 1 1.811-1.811h28.538a1.814 1.814 0 0 1 1.811 1.811z" transform="translate(-33.251 -74.191)" style="fill:#07784e"/>
        <path data-name="패스 5257" d="m26.964 17.286-1.869-.27-.836-1.69a.6.6 0 0 0-1.082 0l-.835 1.69-1.876.27a.6.6 0 0 0-.336 1.029l1.352 1.318-.313 1.867a.6.6 0 0 0 .877.637l1.671-.879 1.671.879a.6.6 0 0 0 .877-.637l-.319-1.859 1.354-1.317a.6.6 0 0 0-.333-1.038m-2.086 1.7a.6.6 0 0 0-.174.534l.167.966-.874-.452a.6.6 0 0 0-.563 0l-.869.456.167-.966a.6.6 0 0 0-.174-.534l-.7-.686.966-.14a.6.6 0 0 0 .454-.331l.435-.881.435.881a.6.6 0 0 0 .454.331l.966.14z" transform="translate(-16.214 -11.369)" style="fill:#07784e"/>
        <path data-name="패스 5258" d="m79.233 17.286-1.869-.27-.836-1.69a.6.6 0 0 0-1.082 0l-.836 1.69-1.867.27a.6.6 0 0 0-.34 1.038l1.352 1.318-.317 1.858a.6.6 0 0 0 .877.637l1.671-.879 1.671.879a.6.6 0 0 0 .877-.637l-.319-1.859 1.352-1.318a.6.6 0 0 0-.333-1.038m-2.086 1.7a.6.6 0 0 0-.174.534l.167.966-.872-.447a.6.6 0 0 0-.563 0l-.869.456.163-.96a.6.6 0 0 0-.181-.534l-.7-.686.966-.14a.6.6 0 0 0 .461-.331l.435-.881.435.881a.6.6 0 0 0 .454.331l.966.14z" transform="translate(-55.859 -11.369)" style="fill:#07784e"/>
        <path data-name="패스 5259" d="m131.584 17.286-1.869-.27-.835-1.69a.6.6 0 0 0-1.082 0l-.836 1.69-1.867.27a.6.6 0 0 0-.336 1.029l1.352 1.318-.319 1.859a.6.6 0 0 0 .877.637l1.671-.879 1.671.879a.6.6 0 0 0 .877-.637l-.319-1.859 1.355-1.309a.6.6 0 0 0-.34-1.038M129.51 19a.6.6 0 0 0-.174.534l.167.966-.869-.456a.6.6 0 0 0-.563 0l-.869.456.167-.966a.6.6 0 0 0-.174-.534l-.7-.686.966-.14a.6.6 0 0 0 .454-.331l.435-.881.439.881a.6.6 0 0 0 .454.331l.966.14z" transform="translate(-95.578 -11.369)" style="fill:#07784e"/>
        <path data-name="패스 5260" d="m183.874 17.286-1.874-.27-.836-1.69a.6.6 0 0 0-1.082 0l-.836 1.69-1.876.27a.6.6 0 0 0-.336 1.029l1.352 1.318-.319 1.859a.6.6 0 0 0 .877.637l1.671-.879 1.671.879a.6.6 0 0 0 .879-.628l-.319-1.859 1.352-1.318a.6.6 0 0 0-.331-1.038m-2.086 1.7a.6.6 0 0 0-.174.534l.167.966-.869-.456a.6.6 0 0 0-.563 0l-.869.456.167-.966a.6.6 0 0 0-.174-.534l-.7-.686.966-.14a.6.6 0 0 0 .454-.331l.435-.881.435.881a.6.6 0 0 0 .454.331l.966.14z" transform="translate(-135.234 -11.369)" style="fill:#07784e"/>
        <path data-name="패스 5261" d="M54.349 14.459a3.021 3.021 0 0 0 3.018-3.018V3.018A3.021 3.021 0 0 0 54.349 0H7.5a3.021 3.021 0 0 0-3.02 3.018v8.423a3.021 3.021 0 0 0 3.02 3.018h31.987V20.6a.6.6 0 0 0 .939.5l9.9-6.638zM49.8 13.354l-9.113 6.109v-5.607a.6.6 0 0 0-.6-.6H7.5a1.814 1.814 0 0 1-1.811-1.811V3.018A1.814 1.814 0 0 1 7.5 1.207h46.849a1.814 1.814 0 0 1 1.811 1.811v8.423a1.813 1.813 0 0 1-1.811 1.811h-4.206a.6.6 0 0 0-.336.1z" transform="translate(-4.48)" style="fill:#07784e"/>
    </g>
</svg>
