<svg xmlns="http://www.w3.org/2000/svg" width="232.944" height="167" viewBox="0 0 232.944 167">
    <defs>
        <clipPath id="ulk5i4awja">
            <path data-name="사각형 1300" style="fill:none" d="M0 0h232.944v167H0z"/>
        </clipPath>
    </defs>
    <g data-name="그룹 9336">
        <g data-name="그룹 9335" style="clip-path:url(#ulk5i4awja)">
            <path data-name="패스 5455" d="M351.065 326.92 336 305.787l-58.764-5.819c-8.083 8.932-15.906 13.961-20.236 12.493l-.077.117 91.75 17.955a3.067 3.067 0 0 0 .816.053 2.634 2.634 0 0 0 .37-.053 2.317 2.317 0 0 0 .651-.248 2.124 2.124 0 0 0 .275-.186 2.057 2.057 0 0 0 .705-1.065 2.189 2.189 0 0 0 .078-.668 2.505 2.505 0 0 0-.135-.716 3.071 3.071 0 0 0-.368-.731" transform="translate(-168.277 -196.816)" style="fill:#0b4599"/>
            <path data-name="패스 5450" d="M325.677 191.26a108.547 108.547 0 0 1-9.87 12.807l61.02 7.994-39.527-58.513-.077.117c4.29 4.817-.6 21.075-11.546 37.6" transform="translate(-207.536 -100.915)" style="fill:#1743bf"/>
            <path data-name="패스 5445" d="M527.049 383.809c6.279 4.159 10.684-2.493 16.964 1.665s1.873 10.81 8.152 14.969 10.685-2.493 16.965 1.666 1.874 10.811 8.154 14.97" transform="translate(-345.204 -251.385)" style="stroke-miterlimit:10;stroke-width:2px;stroke:#1e1e1e;fill:none"/>
            <path data-name="패스 5446" d="M292.559 151.213a4.074 4.074 0 0 0-.794-.694c-5.607-3.714-19.513 7.407-31.058 24.84s-16.359 34.575-10.752 38.289a4.072 4.072 0 0 0 .948.46c4.331 1.467 12.154-3.558 20.24-12.493a108.541 108.541 0 0 0 9.87-12.807c10.941-16.521 15.836-32.778 11.546-37.6" transform="translate(-162.181 -98.118)" style="fill:#0c3377"/>
            <path data-name="패스 5447" d="M370.209 188.43a4.513 4.513 0 1 1-6.014-2.14 4.514 4.514 0 0 1 6.014 2.14z" transform="translate(-248.153 -133.119)" style="stroke:#ff9614;stroke-miterlimit:10;stroke-width:2px;fill:none"/>
            <path data-name="패스 5448" d="M245.923 233.2c-6.073-2.034-1.8-14.806-7.868-16.841s-10.351 10.738-16.425 8.7-1.8-14.806-7.869-16.841-10.352 10.738-16.427 8.7-1.8-14.807-7.871-16.841" transform="translate(-132.458 -138.456)" style="stroke:#66bb6a;stroke-miterlimit:10;stroke-width:2px;fill:none"/>
            <path data-name="패스 5449" d="M526.934 387.838a2.317 2.317 0 0 1-.651.248 2.317 2.317 0 0 0 .651-.248" transform="translate(-344.702 -254.024)" style="fill:#1743bf"/>
            <path data-name="패스 5451" d="M430.435 231.019 378.1 153.548l39.526 58.512 12.807 18.958a3.071 3.071 0 0 1 .368.731 3.071 3.071 0 0 0-.368-.731" transform="translate(-247.647 -100.57)" style="fill:#1743bf"/>
            <path data-name="패스 5452" d="m256.922 336.295.077-.117-.077.117 91.75 17.955a3.066 3.066 0 0 0 .816.053 3.066 3.066 0 0 1-.816-.053z" transform="translate(-168.277 -220.188)" style="fill:#1743bf"/>
            <path data-name="패스 5453" d="M531.089 382.276a2.2 2.2 0 0 1-.077.668 2.2 2.2 0 0 0 .077-.668" transform="translate(-347.799 -250.381)" style="fill:#1743bf"/>
            <path data-name="패스 5454" d="M529.405 385.918a2.067 2.067 0 0 1-.437.477 2.067 2.067 0 0 0 .437-.477" transform="translate(-346.46 -252.766)" style="fill:#0b4599"/>
            <path data-name="패스 5457" d="M217.41 110.3a4.513 4.513 0 1 1-4.079-4.909 4.513 4.513 0 0 1 4.079 4.909z" transform="translate(-136.498 -69.016)" style="stroke:#f16f8c;stroke-miterlimit:10;stroke-width:2px;fill:none"/>
            <path data-name="패스 5458" d="M162.91 43.9a1.682 1.682 0 1 1-1.52-1.83 1.682 1.682 0 0 1 1.52 1.83" transform="translate(-104.503 -27.552)" style="fill:#ff9614"/>
            <path data-name="패스 5459" d="M141.622 121.317a1.682 1.682 0 1 1-1.52-1.83 1.682 1.682 0 0 1 1.52 1.83" transform="translate(-90.56 -78.256)" style="fill:#1098d5"/>
            <path data-name="패스 5460" d="M257.284 71.854a1.682 1.682 0 1 1-1.52-1.83 1.682 1.682 0 0 1 1.52 1.83" transform="translate(-166.316 -45.859)" style="fill:#ea4268"/>
            <path data-name="패스 5461" d="M58.714 288.839a1.682 1.682 0 1 1-1.52-1.83 1.682 1.682 0 0 1 1.52 1.83" transform="translate(-36.257 -187.979)" style="fill:#ff9614"/>
            <path data-name="패스 5462" d="M139.526 311.307a1.682 1.682 0 1 1-1.52-1.83 1.682 1.682 0 0 1 1.52 1.83" transform="translate(-89.187 -202.695)" style="fill:#ab47bc"/>
            <path data-name="패스 5463" d="M351.582 99.672a1.682 1.682 0 1 1-1.52-1.83 1.682 1.682 0 0 1 1.52 1.83" transform="translate(-228.079 -64.079)" style="fill:#1098d5"/>
            <path data-name="패스 5464" d="M399.666 94.8a1.682 1.682 0 1 1-1.52-1.83 1.682 1.682 0 0 1 1.52 1.83" transform="translate(-259.572 -60.886)" style="fill:#ab47bc"/>
            <path data-name="패스 5465" d="M63.345 63.734a1.682 1.682 0 1 1-1.52-1.83 1.682 1.682 0 0 1 1.52 1.83" transform="translate(-39.291 -40.541)" style="fill:#ab47bc"/>
            <path data-name="패스 5466" d="M279.3 57.706c-1.3-5.428 10.12-8.152 8.825-13.58s-12.71-2.7-14.005-8.132 10.12-8.152 8.824-13.58-12.71-2.7-14.006-8.134S279.062 6.128 277.766.7" transform="translate(-176.083 -.458)" style="stroke:#ff9614;stroke-miterlimit:10;stroke-width:2px;fill:none"/>
            <path data-name="패스 5467" d="M51.791 169.292c-5.4-1.41-2.434-12.765-7.833-14.175s-8.364 9.945-13.764 8.535-2.434-12.765-7.833-14.175S14 159.421 8.6 158.011 6.16 145.246.76 143.836" transform="translate(-.498 -94.209)" style="stroke:#1098d5;stroke-miterlimit:10;stroke-width:2px;fill:none"/>
            <path data-name="패스 5468" d="M264.562 303.029a1.682 1.682 0 1 1-2.241-.8 1.682 1.682 0 0 1 2.241.8" transform="translate(-171.185 -197.847)" style="fill:#ff9614"/>
            <path data-name="패스 5469" d="M327.183 199.578a1.682 1.682 0 1 1-2.241-.8 1.682 1.682 0 0 1 2.241.8" transform="translate(-212.2 -130.09)" style="fill:#606060"/>
            <path data-name="패스 5470" d="M63.589 114.11a1.682 1.682 0 1 1-1.521-1.83 1.682 1.682 0 0 1 1.521 1.83" transform="translate(-39.45 -73.536)" style="fill:#ea4268"/>
            <path data-name="패스 5471" d="M101.414 232.342a4.513 4.513 0 1 1-4.079-4.909 4.514 4.514 0 0 1 4.079 4.909z" transform="translate(-60.523 -148.95)" style="stroke:#7ac7b2;stroke-miterlimit:10;stroke-width:2px;fill:none"/>
        </g>
    </g>
</svg>
